<svg class="svg-icon" style="width: 1em; height: 1em;vertical-align: middle;fill: currentColor;overflow: hidden;" viewBox="0 0 1024 1024" version="1.1" xmlns="http://www.w3.org/2000/svg"><path d="M520.558421 146.056494l0 691.963745L347.888803 838.020238 347.888803 467.035926c0-53.56701-1.282203-85.762269-3.846608-96.593965-2.564405-10.82658-9.616008-19.019169-21.155832-24.575722-11.540847-5.555529-37.257555-8.335852-77.146031-8.335852l-17.096377 0 0-80.671321c83.483366-17.965164 146.879232-54.901401 190.192713-110.804618L520.558421 146.054447z"  /><path d="M994.975455 380.272863l0 230.798527c0 52.429093-2.851954 90.608647-8.5487 114.544803-5.702885 23.934109-17.524119 46.305629-35.474956 67.100234-17.950837 20.802792-39.60809 35.762505-64.964594 44.877093-25.362644 9.114588-53.711296 13.675464-85.051071 13.675464-41.319058 0-75.652004-4.773723-103.004979-14.3181-27.352975-9.541307-49.149397-24.426319-65.391313-44.663222-16.241916-20.22974-27.779693-41.524742-34.619472-63.896262-6.838755-22.363334-10.256598-57.912991-10.256598-106.636692L587.663772 380.272863c0-63.536059 5.481851-111.124913 16.455787-142.751215 10.965749-31.628348 32.763195-56.984852 65.390289-76.077699 32.623002-19.086707 72.15946-28.635177 118.603235-28.635177 37.893029 0 71.804373 6.623861 101.722776 19.87363 29.915333 13.248745 52.28276 29.423123 67.099211 48.50983 14.814404 19.092847 24.856108 40.603767 30.132274 64.537875C992.336348 289.664216 994.975455 327.84991 994.975455 380.272863zM822.304813 322.146001c0-36.755112-1.782599-59.762105-5.342682-69.025073-3.565199-9.255805-11.901051-13.890358-25.00551-13.890358-12.821003 0-21.302165 4.91494-25.430182 14.744819-4.133134 9.829879-6.198166 32.555463-6.198166 68.170612l0 337.648067c0 40.176025 1.923816 64.398706 5.771447 72.658833 3.846608 8.266267 12.17939 12.394285 25.003464 12.394285 12.821003 0 21.222347-4.840238 25.216311-14.532995 3.986801-9.682523 5.985318-31.479969 5.985318-65.391313L822.304813 322.146001z"  /><path d="M206.372719 146.056494l-64.656579 109.99416 50.945299 0 0 24.304546-59.357899 0 0 33.496905 59.357899 0 0 24.616654-59.357899 0 0 48.765657-30.537504 0L102.766037 338.468758 41.225425 338.468758l0-24.616654 61.540611 0L102.766037 280.355199 41.225425 280.355199l0-24.304546 52.503794 0L29.696858 146.056494l34.43016 0c29.91431 54.635341 48.089251 89.273233 54.529941 103.918791l0.624217 0c2.180666-6.02318 8.15268-18.175965 17.917068-36.45733l36.611849-67.460438L206.372719 146.057517z"  /></svg>