<svg class="svg-icon" style="width: 1em; height: 1em;vertical-align: middle;fill: currentColor;overflow: hidden;" viewBox="0 0 1024 1024" version="1.1" xmlns="http://www.w3.org/2000/svg"><path d="M236.8 960.8c33 0 60-27 60-60s-27-60-60-60-60 27-60 60c0 33.1 27 60 60 60z" fill="#4C0094" /><path d="M236.8 888.8m-60 0a60 60 0 1 0 120 0 60 60 0 1 0-120 0Z" fill="#4C0395" /><path d="M236.8 876.8m-60 0a60 60 0 1 0 120 0 60 60 0 1 0-120 0Z" fill="#4C0596" /><path d="M236.8 864.8m-60 0a60 60 0 1 0 120 0 60 60 0 1 0-120 0Z" fill="#4D0897" /><path d="M236.8 852.7m-60 0a60 60 0 1 0 120 0 60 60 0 1 0-120 0Z" fill="#4D0A98" /><path d="M236.8 840.7m-60 0a60 60 0 1 0 120 0 60 60 0 1 0-120 0Z" fill="#4D0D99" /><path d="M236.8 828.7m-60 0a60 60 0 1 0 120 0 60 60 0 1 0-120 0Z" fill="#4D0F9A" /><path d="M236.8 816.7m-60 0a60 60 0 1 0 120 0 60 60 0 1 0-120 0Z" fill="#4D129B" /><path d="M236.8 804.7m-60 0a60 60 0 1 0 120 0 60 60 0 1 0-120 0Z" fill="#4D149C" /><path d="M236.8 792.6m-60 0a60 60 0 1 0 120 0 60 60 0 1 0-120 0Z" fill="#4E179D" /><path d="M236.8 780.6m-60 0a60 60 0 1 0 120 0 60 60 0 1 0-120 0Z" fill="#4E199E" /><path d="M236.8 768.6m-60 0a60 60 0 1 0 120 0 60 60 0 1 0-120 0Z" fill="#4E1C9F" /><path d="M236.8 756.6m-60 0a60 60 0 1 0 120 0 60 60 0 1 0-120 0Z" fill="#4E1EA0" /><path d="M236.8 744.5m-60 0a60 60 0 1 0 120 0 60 60 0 1 0-120 0Z" fill="#4E21A1" /><path d="M236.8 732.5m-60 0a60 60 0 1 0 120 0 60 60 0 1 0-120 0Z" fill="#4E23A2" /><path d="M236.8 720.5m-60 0a60 60 0 1 0 120 0 60 60 0 1 0-120 0Z" fill="#4F26A3" /><path d="M236.8 708.5m-60 0a60 60 0 1 0 120 0 60 60 0 1 0-120 0Z" fill="#4F28A4" /><path d="M236.8 696.4m-60 0a60 60 0 1 0 120 0 60 60 0 1 0-120 0Z" fill="#4F2BA5" /><path d="M236.8 684.4m-60 0a60 60 0 1 0 120 0 60 60 0 1 0-120 0Z" fill="#4F2DA6" /><path d="M236.8 672.4m-60 0a60 60 0 1 0 120 0 60 60 0 1 0-120 0Z" fill="#4F30A7" /><path d="M236.8 660.4m-60 0a60 60 0 1 0 120 0 60 60 0 1 0-120 0Z" fill="#5032A8" /><path d="M236.8 648.3m-60 0a60 60 0 1 0 120 0 60 60 0 1 0-120 0Z" fill="#5035A9" /><path d="M236.8 636.3m-60 0a60 60 0 1 0 120 0 60 60 0 1 0-120 0Z" fill="#5038AA" /><path d="M236.8 624.3m-60 0a60 60 0 1 0 120 0 60 60 0 1 0-120 0Z" fill="#503AAB" /><path d="M236.8 612.3m-60 0a60 60 0 1 0 120 0 60 60 0 1 0-120 0Z" fill="#503DAC" /><path d="M236.8 600.2m-60 0a60 60 0 1 0 120 0 60 60 0 1 0-120 0Z" fill="#503FAD" /><path d="M247.2 598.6m-60 0a60 60 0 1 0 120 0 60 60 0 1 0-120 0Z" fill="#5142AE" /><path d="M259.2 598.6m-60 0a60 60 0 1 0 120 0 60 60 0 1 0-120 0Z" fill="#5144AF" /><path d="M271.2 598.6m-60 0a60 60 0 1 0 120 0 60 60 0 1 0-120 0Z" fill="#5147B0" /><path d="M283.3 598.6m-60 0a60 60 0 1 0 120 0 60 60 0 1 0-120 0Z" fill="#5149B1" /><path d="M295.3 598.6m-60 0a60 60 0 1 0 120 0 60 60 0 1 0-120 0Z" fill="#514CB2" /><path d="M307.3 598.6m-60 0a60 60 0 1 0 120 0 60 60 0 1 0-120 0Z" fill="#524EB3" /><path d="M319.3 598.6m-60 0a60 60 0 1 0 120 0 60 60 0 1 0-120 0Z" fill="#5251B4" /><path d="M331.4 598.6m-60 0a60 60 0 1 0 120 0 60 60 0 1 0-120 0Z" fill="#5253B5" /><path d="M343.4 598.6m-60 0a60 60 0 1 0 120 0 60 60 0 1 0-120 0Z" fill="#5256B6" /><path d="M355.4 598.6m-60 0a60 60 0 1 0 120 0 60 60 0 1 0-120 0Z" fill="#5258B7" /><path d="M367.4 598.6m-60 0a60 60 0 1 0 120 0 60 60 0 1 0-120 0Z" fill="#525BB8" /><path d="M379.4 598.6m-60 0a60 60 0 1 0 120 0 60 60 0 1 0-120 0Z" fill="#535DB9" /><path d="M391.5 598.6m-60 0a60 60 0 1 0 120 0 60 60 0 1 0-120 0Z" fill="#5360BA" /><path d="M391.8 595.6m-60 0a60 60 0 1 0 120 0 60 60 0 1 0-120 0Z" fill="#5362BB" /><path d="M379.8 595.6m-60 0a60 60 0 1 0 120 0 60 60 0 1 0-120 0Z" fill="#5365BC" /><path d="M367.8 595.6m-60 0a60 60 0 1 0 120 0 60 60 0 1 0-120 0Z" fill="#5368BD" /><path d="M355.8 595.6m-60 0a60 60 0 1 0 120 0 60 60 0 1 0-120 0Z" fill="#536ABE" /><path d="M343.7 595.6m-60 0a60 60 0 1 0 120 0 60 60 0 1 0-120 0Z" fill="#546DBF" /><path d="M331.7 595.6m-60 0a60 60 0 1 0 120 0 60 60 0 1 0-120 0Z" fill="#546FC0" /><path d="M319.7 595.6m-60 0a60 60 0 1 0 120 0 60 60 0 1 0-120 0Z" fill="#5472C1" /><path d="M307.7 595.6m-60 0a60 60 0 1 0 120 0 60 60 0 1 0-120 0Z" fill="#5474C2" /><path d="M295.6 595.6m-60 0a60 60 0 1 0 120 0 60 60 0 1 0-120 0Z" fill="#5477C3" /><path d="M283.6 595.6m-60 0a60 60 0 1 0 120 0 60 60 0 1 0-120 0Z" fill="#5579C4" /><path d="M271.6 595.6m-60 0a60 60 0 1 0 120 0 60 60 0 1 0-120 0Z" fill="#557CC5" /><path d="M259.6 595.6m-60 0a60 60 0 1 0 120 0 60 60 0 1 0-120 0Z" fill="#557EC6" /><path d="M247.5 595.6m-60 0a60 60 0 1 0 120 0 60 60 0 1 0-120 0Z" fill="#5581C8" /><path d="M236.8 594.3m-60 0a60 60 0 1 0 120 0 60 60 0 1 0-120 0Z" fill="#5583C9" /><path d="M236.8 582.3m-60 0a60 60 0 1 0 120 0 60 60 0 1 0-120 0Z" fill="#5586CA" /><path d="M236.8 570.2m-60 0a60 60 0 1 0 120 0 60 60 0 1 0-120 0Z" fill="#5688CB" /><path d="M236.8 558.2m-60 0a60 60 0 1 0 120 0 60 60 0 1 0-120 0Z" fill="#568BCC" /><path d="M236.8 546.2m-60 0a60 60 0 1 0 120 0 60 60 0 1 0-120 0Z" fill="#568DCD" /><path d="M236.8 534.2m-60 0a60 60 0 1 0 120 0 60 60 0 1 0-120 0Z" fill="#5690CE" /><path d="M236.8 522.1m-60 0a60 60 0 1 0 120 0 60 60 0 1 0-120 0Z" fill="#5692CF" /><path d="M236.8 510.1m-60 0a60 60 0 1 0 120 0 60 60 0 1 0-120 0Z" fill="#5795D0" /><path d="M236.8 498.1m-60 0a60 60 0 1 0 120 0 60 60 0 1 0-120 0Z" fill="#5797D1" /><path d="M236.8 486.1m-60 0a60 60 0 1 0 120 0 60 60 0 1 0-120 0Z" fill="#579AD2" /><path d="M236.8 474.1m-60 0a60 60 0 1 0 120 0 60 60 0 1 0-120 0Z" fill="#579DD3" /><path d="M236.8 462m-60 0a60 60 0 1 0 120 0 60 60 0 1 0-120 0Z" fill="#579FD4" /><path d="M236.8 450m-60 0a60 60 0 1 0 120 0 60 60 0 1 0-120 0Z" fill="#57A2D5" /><path d="M236.8 438m-60 0a60 60 0 1 0 120 0 60 60 0 1 0-120 0Z" fill="#58A4D6" /><path d="M236.8 426m-60 0a60 60 0 1 0 120 0 60 60 0 1 0-120 0Z" fill="#58A7D7" /><path d="M236.8 413.9m-60 0a60 60 0 1 0 120 0 60 60 0 1 0-120 0Z" fill="#58A9D8" /><path d="M236.8 401.9m-60 0a60 60 0 1 0 120 0 60 60 0 1 0-120 0Z" fill="#58ACD9" /><path d="M236.8 389.9m-60 0a60 60 0 1 0 120 0 60 60 0 1 0-120 0Z" fill="#58AEDA" /><path d="M236.8 377.9m-60 0a60 60 0 1 0 120 0 60 60 0 1 0-120 0Z" fill="#58B1DB" /><path d="M236.8 365.8m-60 0a60 60 0 1 0 120 0 60 60 0 1 0-120 0Z" fill="#59B3DC" /><path d="M236.8 353.8m-60 0a60 60 0 1 0 120 0 60 60 0 1 0-120 0Z" fill="#59B6DD" /><path d="M236.8 341.8m-60 0a60 60 0 1 0 120 0 60 60 0 1 0-120 0Z" fill="#59B8DE" /><path d="M236.8 329.8m-60 0a60 60 0 1 0 120 0 60 60 0 1 0-120 0Z" fill="#59BBDF" /><path d="M236.8 317.7m-60 0a60 60 0 1 0 120 0 60 60 0 1 0-120 0Z" fill="#59BDE0" /><path d="M236.8 305.7m-60 0a60 60 0 1 0 120 0 60 60 0 1 0-120 0Z" fill="#5AC0E1" /><path d="M236.8 293.7m-60 0a60 60 0 1 0 120 0 60 60 0 1 0-120 0Z" fill="#5AC2E2" /><path d="M236.8 281.7m-60 0a60 60 0 1 0 120 0 60 60 0 1 0-120 0Z" fill="#5AC5E3" /><path d="M236.8 269.6m-60 0a60 60 0 1 0 120 0 60 60 0 1 0-120 0Z" fill="#5AC7E4" /><path d="M236.8 257.6m-60 0a60 60 0 1 0 120 0 60 60 0 1 0-120 0Z" fill="#5ACAE5" /><path d="M236.8 245.6m-60 0a60 60 0 1 0 120 0 60 60 0 1 0-120 0Z" fill="#5ACDE6" /><path d="M236.8 233.6m-60 0a60 60 0 1 0 120 0 60 60 0 1 0-120 0Z" fill="#5BCFE7" /><path d="M236.8 221.5m-60 0a60 60 0 1 0 120 0 60 60 0 1 0-120 0Z" fill="#5BD2E8" /><path d="M236.8 209.5m-60 0a60 60 0 1 0 120 0 60 60 0 1 0-120 0Z" fill="#5BD4E9" /><path d="M236.8 197.5m-60 0a60 60 0 1 0 120 0 60 60 0 1 0-120 0Z" fill="#5BD7EA" /><path d="M236.8 185.5m-60 0a60 60 0 1 0 120 0 60 60 0 1 0-120 0Z" fill="#5BD9EB" /><path d="M236.8 173.5m-60 0a60 60 0 1 0 120 0 60 60 0 1 0-120 0Z" fill="#5CDCEC" /><path d="M236.8 161.4m-60 0a60 60 0 1 0 120 0 60 60 0 1 0-120 0Z" fill="#5CDEED" /><path d="M236.8 149.4m-60 0a60 60 0 1 0 120 0 60 60 0 1 0-120 0Z" fill="#5CE1EE" /><path d="M236.8 137.4m-60 0a60 60 0 1 0 120 0 60 60 0 1 0-120 0Z" fill="#5CE3EF" /><path d="M236.8 125.4m-60 0a60 60 0 1 0 120 0 60 60 0 1 0-120 0Z" fill="#5CE6F0" /><path d="M239.9 123.2m-60 0a60 60 0 1 0 120 0 60 60 0 1 0-120 0Z" fill="#5CE8F1" /><path d="M246.8 133m-60 0a60 60 0 1 0 120 0 60 60 0 1 0-120 0Z" fill="#5DEBF2" /><path d="M253.8 142.8m-60 0a60 60 0 1 0 120 0 60 60 0 1 0-120 0Z" fill="#5DEDF3" /><path d="M260.7 152.7m-60 0a60 60 0 1 0 120 0 60 60 0 1 0-120 0Z" fill="#5DF0F4" /><path d="M267.6 162.5m-60 0a60 60 0 1 0 120 0 60 60 0 1 0-120 0Z" fill="#5DF2F5" /><path d="M274.5 172.3m-60 0a60 60 0 1 0 120 0 60 60 0 1 0-120 0Z" fill="#5DF5F6" /><path d="M281.4 182.2m-60 0a60 60 0 1 0 120 0 60 60 0 1 0-120 0Z" fill="#5DF7F7" /><path d="M288.4 192m-60 0a60 60 0 1 0 120 0 60 60 0 1 0-120 0Z" fill="#5EFAF8" /><path d="M295.3 201.8m-60 0a60 60 0 1 0 120 0 60 60 0 1 0-120 0Z" fill="#5EFCF9" /><path d="M302.2 271.7c33 0 60-27 60-60s-27-60-60-60-60 27-60 60 27 60 60 60z" fill="#5EFFFA" /><path d="M307 218.5m-60 0a60 60 0 1 0 120 0 60 60 0 1 0-120 0Z" fill="#5EFDFA" /><path d="M311.8 225.3m-60 0a60 60 0 1 0 120 0 60 60 0 1 0-120 0Z" fill="#5EFBFA" /><path d="M316.6 232.1m-60 0a60 60 0 1 0 120 0 60 60 0 1 0-120 0Z" fill="#5FF9FA" /><path d="M321.4 239m-60 0a60 60 0 1 0 120 0 60 60 0 1 0-120 0Z" fill="#5FF7FA" /><path d="M326.2 245.8m-60 0a60 60 0 1 0 120 0 60 60 0 1 0-120 0Z" fill="#5FF5FA" /><path d="M331 252.6m-60 0a60 60 0 1 0 120 0 60 60 0 1 0-120 0Z" fill="#5FF3FA" /><path d="M335.8 259.4m-60 0a60 60 0 1 0 120 0 60 60 0 1 0-120 0Z" fill="#60F2FA" /><path d="M340.6 266.2m-60 0a60 60 0 1 0 120 0 60 60 0 1 0-120 0Z" fill="#60F0FA" /><path d="M345.4 273.1m-60 0a60 60 0 1 0 120 0 60 60 0 1 0-120 0Z" fill="#60EEFA" /><path d="M350.2 279.9m-60 0a60 60 0 1 0 120 0 60 60 0 1 0-120 0Z" fill="#60ECFA" /><path d="M355 286.7m-60 0a60 60 0 1 0 120 0 60 60 0 1 0-120 0Z" fill="#61EAFB" /><path d="M359.8 293.5m-60 0a60 60 0 1 0 120 0 60 60 0 1 0-120 0Z" fill="#61E8FB" /><path d="M364.6 300.4m-60 0a60 60 0 1 0 120 0 60 60 0 1 0-120 0Z" fill="#61E6FB" /><path d="M369.4 307.2m-60 0a60 60 0 1 0 120 0 60 60 0 1 0-120 0Z" fill="#61E4FB" /><path d="M374.2 314m-60 0a60 60 0 1 0 120 0 60 60 0 1 0-120 0Z" fill="#62E2FB" /><path d="M379 320.8m-60 0a60 60 0 1 0 120 0 60 60 0 1 0-120 0Z" fill="#62E0FB" /><path d="M383.8 327.7m-60 0a60 60 0 1 0 120 0 60 60 0 1 0-120 0Z" fill="#62DEFB" /><path d="M388.6 334.5m-60 0a60 60 0 1 0 120 0 60 60 0 1 0-120 0Z" fill="#62DCFB" /><path d="M393.4 341.3m-60 0a60 60 0 1 0 120 0 60 60 0 1 0-120 0Z" fill="#63DBFB" /><path d="M398.2 348.1m-60 0a60 60 0 1 0 120 0 60 60 0 1 0-120 0Z" fill="#63D9FB" /><path d="M403 355m-60 0a60 60 0 1 0 120 0 60 60 0 1 0-120 0Z" fill="#63D7FB" /><path d="M407.8 361.8m-60 0a60 60 0 1 0 120 0 60 60 0 1 0-120 0Z" fill="#63D5FB" /><path d="M412.6 368.6m-60 0a60 60 0 1 0 120 0 60 60 0 1 0-120 0Z" fill="#64D3FB" /><path d="M417.4 375.4m-60 0a60 60 0 1 0 120 0 60 60 0 1 0-120 0Z" fill="#64D1FB" /><path d="M422.2 382.2m-60 0a60 60 0 1 0 120 0 60 60 0 1 0-120 0Z" fill="#64CFFB" /><path d="M427.1 389.1m-60 0a60 60 0 1 0 120 0 60 60 0 1 0-120 0Z" fill="#64CDFB" /><path d="M431.9 395.9m-60 0a60 60 0 1 0 120 0 60 60 0 1 0-120 0Z" fill="#65CBFB" /><path d="M436.7 402.7m-60 0a60 60 0 1 0 120 0 60 60 0 1 0-120 0Z" fill="#65C9FB" /><path d="M441.5 409.5m-60 0a60 60 0 1 0 120 0 60 60 0 1 0-120 0Z" fill="#65C7FB" /><path d="M446.3 416.4m-60 0a60 60 0 1 0 120 0 60 60 0 1 0-120 0Z" fill="#65C5FB" /><path d="M451.1 423.2m-60 0a60 60 0 1 0 120 0 60 60 0 1 0-120 0Z" fill="#66C3FC" /><path d="M455.9 430m-60 0a60 60 0 1 0 120 0 60 60 0 1 0-120 0Z" fill="#66C2FC" /><path d="M460.7 436.8m-60 0a60 60 0 1 0 120 0 60 60 0 1 0-120 0Z" fill="#66C0FC" /><path d="M465.5 443.7m-60 0a60 60 0 1 0 120 0 60 60 0 1 0-120 0Z" fill="#66BEFC" /><path d="M470.3 450.5m-60 0a60 60 0 1 0 120 0 60 60 0 1 0-120 0Z" fill="#67BCFC" /><path d="M475.1 457.3m-60 0a60 60 0 1 0 120 0 60 60 0 1 0-120 0Z" fill="#67BAFC" /><path d="M479.9 464.1m-60 0a60 60 0 1 0 120 0 60 60 0 1 0-120 0Z" fill="#67B8FC" /><path d="M484.7 471m-60 0a60 60 0 1 0 120 0 60 60 0 1 0-120 0Z" fill="#67B6FC" /><path d="M489.5 477.8m-60 0a60 60 0 1 0 120 0 60 60 0 1 0-120 0Z" fill="#68B4FC" /><path d="M494.3 484.6m-60 0a60 60 0 1 0 120 0 60 60 0 1 0-120 0Z" fill="#68B2FC" /><path d="M499.1 491.4m-60 0a60 60 0 1 0 120 0 60 60 0 1 0-120 0Z" fill="#68B0FC" /><path d="M503.9 498.3m-60 0a60 60 0 1 0 120 0 60 60 0 1 0-120 0Z" fill="#68AEFC" /><path d="M508.7 505.1m-60 0a60 60 0 1 0 120 0 60 60 0 1 0-120 0Z" fill="#69ACFC" /><path d="M513.5 511.9m-60 0a60 60 0 1 0 120 0 60 60 0 1 0-120 0Z" fill="#69AAFC" /><path d="M518.3 518.7m-60 0a60 60 0 1 0 120 0 60 60 0 1 0-120 0Z" fill="#69A9FC" /><path d="M523.1 525.5m-60 0a60 60 0 1 0 120 0 60 60 0 1 0-120 0Z" fill="#69A7FC" /><path d="M527.9 532.4m-60 0a60 60 0 1 0 120 0 60 60 0 1 0-120 0Z" fill="#6AA5FC" /><path d="M532.7 539.2m-60 0a60 60 0 1 0 120 0 60 60 0 1 0-120 0Z" fill="#6AA3FC" /><path d="M537.5 546m-60 0a60 60 0 1 0 120 0 60 60 0 1 0-120 0Z" fill="#6AA1FC" /><path d="M542.3 552.8m-60 0a60 60 0 1 0 120 0 60 60 0 1 0-120 0Z" fill="#6A9FFC" /><path d="M547.1 559.7m-60 0a60 60 0 1 0 120 0 60 60 0 1 0-120 0Z" fill="#6B9DFD" /><path d="M551.9 566.5m-60 0a60 60 0 1 0 120 0 60 60 0 1 0-120 0Z" fill="#6B9BFD" /><path d="M556.7 573.3m-60 0a60 60 0 1 0 120 0 60 60 0 1 0-120 0Z" fill="#6B99FD" /><path d="M561.5 580.1m-60 0a60 60 0 1 0 120 0 60 60 0 1 0-120 0Z" fill="#6B97FD" /><path d="M566.3 587m-60 0a60 60 0 1 0 120 0 60 60 0 1 0-120 0Z" fill="#6C95FD" /><path d="M571.1 593.8m-60 0a60 60 0 1 0 120 0 60 60 0 1 0-120 0Z" fill="#6C93FD" /><path d="M575.9 600.6m-60 0a60 60 0 1 0 120 0 60 60 0 1 0-120 0Z" fill="#6C92FD" /><path d="M580.7 607.4m-60 0a60 60 0 1 0 120 0 60 60 0 1 0-120 0Z" fill="#6C90FD" /><path d="M585.5 614.3m-60 0a60 60 0 1 0 120 0 60 60 0 1 0-120 0Z" fill="#6D8EFD" /><path d="M590.3 621.1m-60 0a60 60 0 1 0 120 0 60 60 0 1 0-120 0Z" fill="#6D8CFD" /><path d="M595.1 627.9m-60 0a60 60 0 1 0 120 0 60 60 0 1 0-120 0Z" fill="#6D8AFD" /><path d="M599.9 634.7m-60 0a60 60 0 1 0 120 0 60 60 0 1 0-120 0Z" fill="#6D88FD" /><path d="M604.7 641.5m-60 0a60 60 0 1 0 120 0 60 60 0 1 0-120 0Z" fill="#6E86FD" /><path d="M609.5 648.4m-60 0a60 60 0 1 0 120 0 60 60 0 1 0-120 0Z" fill="#6E84FD" /><path d="M614.3 655.2m-60 0a60 60 0 1 0 120 0 60 60 0 1 0-120 0Z" fill="#6E82FD" /><path d="M619.1 662m-60 0a60 60 0 1 0 120 0 60 60 0 1 0-120 0Z" fill="#6E80FD" /><path d="M623.9 668.8m-60 0a60 60 0 1 0 120 0 60 60 0 1 0-120 0Z" fill="#6F7EFD" /><path d="M628.7 675.7m-60 0a60 60 0 1 0 120 0 60 60 0 1 0-120 0Z" fill="#6F7CFD" /><path d="M633.5 682.5m-60 0a60 60 0 1 0 120 0 60 60 0 1 0-120 0Z" fill="#6F7AFD" /><path d="M638.3 689.3m-60 0a60 60 0 1 0 120 0 60 60 0 1 0-120 0Z" fill="#6F79FD" /><path d="M643.1 696.1m-60 0a60 60 0 1 0 120 0 60 60 0 1 0-120 0Z" fill="#7077FE" /><path d="M647.9 703m-60 0a60 60 0 1 0 120 0 60 60 0 1 0-120 0Z" fill="#7075FE" /><path d="M652.7 709.8m-60 0a60 60 0 1 0 120 0 60 60 0 1 0-120 0Z" fill="#7073FE" /><path d="M657.5 716.6m-60 0a60 60 0 1 0 120 0 60 60 0 1 0-120 0Z" fill="#7071FE" /><path d="M662.3 723.4m-60 0a60 60 0 1 0 120 0 60 60 0 1 0-120 0Z" fill="#716FFE" /><path d="M667.1 730.3m-60 0a60 60 0 1 0 120 0 60 60 0 1 0-120 0Z" fill="#716DFE" /><path d="M671.9 737.1m-60 0a60 60 0 1 0 120 0 60 60 0 1 0-120 0Z" fill="#716BFE" /><path d="M676.7 743.9m-60 0a60 60 0 1 0 120 0 60 60 0 1 0-120 0Z" fill="#7169FE" /><path d="M681.5 750.7m-60 0a60 60 0 1 0 120 0 60 60 0 1 0-120 0Z" fill="#7267FE" /><path d="M686.3 757.5m-60 0a60 60 0 1 0 120 0 60 60 0 1 0-120 0Z" fill="#7265FE" /><path d="M691.1 764.4m-60 0a60 60 0 1 0 120 0 60 60 0 1 0-120 0Z" fill="#7263FE" /><path d="M695.9 771.2m-60 0a60 60 0 1 0 120 0 60 60 0 1 0-120 0Z" fill="#7261FE" /><path d="M700.8 778m-60 0a60 60 0 1 0 120 0 60 60 0 1 0-120 0Z" fill="#7360FE" /><path d="M705.6 784.8m-60 0a60 60 0 1 0 120 0 60 60 0 1 0-120 0Z" fill="#735EFE" /><path d="M710.4 791.7m-60 0a60 60 0 1 0 120 0 60 60 0 1 0-120 0Z" fill="#735CFE" /><path d="M715.2 798.5m-60 0a60 60 0 1 0 120 0 60 60 0 1 0-120 0Z" fill="#735AFE" /><path d="M720 805.3m-60 0a60 60 0 1 0 120 0 60 60 0 1 0-120 0Z" fill="#7458FE" /><path d="M724.8 812.1m-60 0a60 60 0 1 0 120 0 60 60 0 1 0-120 0Z" fill="#7456FE" /><path d="M729.6 819m-60 0a60 60 0 1 0 120 0 60 60 0 1 0-120 0Z" fill="#7454FE" /><path d="M734.4 825.8m-60 0a60 60 0 1 0 120 0 60 60 0 1 0-120 0Z" fill="#7452FE" /><path d="M739.2 832.6m-60 0a60 60 0 1 0 120 0 60 60 0 1 0-120 0Z" fill="#7550FF" /><path d="M744 839.4m-60 0a60 60 0 1 0 120 0 60 60 0 1 0-120 0Z" fill="#754EFF" /><path d="M748.8 846.3m-60 0a60 60 0 1 0 120 0 60 60 0 1 0-120 0Z" fill="#754CFF" /><path d="M753.6 853.1m-60 0a60 60 0 1 0 120 0 60 60 0 1 0-120 0Z" fill="#754AFF" /><path d="M758.4 859.9m-60 0a60 60 0 1 0 120 0 60 60 0 1 0-120 0Z" fill="#7649FF" /><path d="M763.2 866.7m-60 0a60 60 0 1 0 120 0 60 60 0 1 0-120 0Z" fill="#7647FF" /><path d="M768 873.5m-60 0a60 60 0 1 0 120 0 60 60 0 1 0-120 0Z" fill="#7645FF" /><path d="M772.8 880.4m-60 0a60 60 0 1 0 120 0 60 60 0 1 0-120 0Z" fill="#7643FF" /><path d="M777.6 887.2m-60 0a60 60 0 1 0 120 0 60 60 0 1 0-120 0Z" fill="#7741FF" /><path d="M782.4 894m-60 0a60 60 0 1 0 120 0 60 60 0 1 0-120 0Z" fill="#773FFF" /><path d="M787.2 960.8c33 0 60-27 60-60s-27-60-60-60-60 27-60 60c0 33.1 26.9 60 60 60z" fill="#773DFF" /></svg>