<svg class="svg-icon" style="width: 1em; height: 1em;vertical-align: middle;fill: currentColor;overflow: hidden;" viewBox="0 0 1024 1024" version="1.1" xmlns="http://www.w3.org/2000/svg"><path d="M512 0c282.7648 0 512 229.2352 512 512s-229.2352 512-512 512S0 794.7648 0 512 229.2352 0 512 0zM355.208533 304.238933C399.880533 270.446933 454.442667 251.733333 512 251.733333c143.744 0 260.266667 116.522667 260.266667 260.266667s-116.522667 260.266667-260.266667 260.266667-260.266667-116.522667-260.266667-260.266667a38.4 38.4 0 1 0-76.8 0c0 186.154667 150.912 337.066667 337.066667 337.066667s337.066667-150.912 337.066667-337.066667-150.912-337.066667-337.066667-337.066667c-71.8976 0-140.352 22.634667-197.051733 63.5648l17.181866-64.128a34.133333 34.133333 0 1 0-65.941333-17.664L226.436267 305.066667a34.133333 34.133333 0 0 0 24.132266 41.8048l148.369067 39.752533a34.133333 34.133333 0 1 0 17.664-65.941333l-61.397333-16.448z" fill="#2c2c2c" /></svg>