<svg class="svg-icon" style="width: 1em; height: 1em;vertical-align: middle;fill: currentColor;overflow: hidden;" viewBox="0 0 1024 1024" version="1.1" xmlns="http://www.w3.org/2000/svg"><path d="M512 0C229.215086 0 0 229.215086 0 512s229.215086 512 512 512 512-229.215086 512-512S794.784914 0 512 0zM253.070629 865.536C261.357714 729.713371 374.142171 621.714286 512 621.714286s250.642286 107.999086 258.929371 243.821714C698.249143 918.928457 608.892343 950.857143 512 950.857143S325.750857 918.928457 253.070629 865.536zM384 420.571429c0-70.571886 57.428114-128 128-128s128 57.428114 128 128-57.428114 128-128 128S384 491.143314 384 420.571429zM835.607771 807.392914c-23.857371-105.142857-97.071543-191.606857-194.536229-232.749714C685.070629 537.713371 713.142857 482.357029 713.142857 420.571429c0-110.893714-90.249143-201.142857-201.142857-201.142857s-201.142857 90.249143-201.142857 201.142857c0 61.7856 28.072229 117.141943 72.071314 154.071771-97.464686 41.142857-170.678857 127.606857-194.536229 232.749714C117.070629 729.322057 73.142857 625.821257 73.142857 512 73.142857 269.999543 269.999543 73.142857 512 73.142857s438.857143 196.856686 438.857143 438.857143C950.857143 625.821257 906.929371 729.322057 835.607771 807.392914z"  /></svg>