<svg class="svg-icon" style="width: 1.1220703125em; height: 1em;vertical-align: middle;fill: currentColor;overflow: hidden;" viewBox="0 0 1149 1024" version="1.1" xmlns="http://www.w3.org/2000/svg"><path d="M258.570421 690.81791c13.755224-5.696608 28.344098-11.948982 42.516147-18.062415C299.836092 671.366079 298.724559 669.698779 297.890909 668.170421 293.166893 659.278155 291.22171 650.385889 291.777476 641.354681l50.018996-8.058616C347.354138 625.932157 352.217096 617.595658 356.524288 608.147626 360.275712 600.227951 363.888195 590.640977 367.500678 579.664586 370.97422 568.549254 373.058345 556.044505 373.753053 542.011398c0.694708-9.031208 0.277883-20.007598-1.250475-32.929172C370.97422 496.299593 368.195387 482.822252 364.166079 468.928087S354.856988 441.417639 348.187788 427.801357C341.657531 414.324016 333.459973 402.097151 323.734057 391.259701c-9.725916-10.837449-21.258073-19.590773-34.457531-26.398915-13.199457-6.669199-27.927273-10.003799-44.46133-10.003799-3.751425 0-7.224966 0.138942-10.559566 0.277883s-6.947083 0.416825-10.559566 0.694708c-12.782632 0-25.565265 2.223066-38.486839 6.530258-22.230665 6.391316-39.876255 16.117232-52.797829 29.316689C119.21194 404.875984 109.486024 419.742741 102.816825 436.415739 96.286567 452.949796 92.118318 470.317503 90.451018 488.51886c-1.6673 18.201357-2.50095 35.430122-2.50095 51.408412 0 19.451832 1.6673 35.152239 5.0019 47.379104C96.425509 599.533243 100.037992 609.259159 104.206242 616.206242c4.724016 8.336499 10.142741 14.588874 16.256174 18.618182l43.488738 6.530258c0.277883 4.307191 0.277883 8.475441 0 12.365807s-1.389417 7.502849-3.3346 10.976391S156.031479 671.643962 152.418996 675.117503C148.945455 678.729986 143.943555 682.481411 137.552239 686.510719 128.798915 692.207327 118.517232 696.375577 106.985075 699.293351S84.059701 705.406784 73.222252 709.297151C62.523745 713.187517 52.936771 718.189417 44.739213 724.580733 36.402714 730.972049 31.261872 740.28114 29.316689 752.646947c-3.056716 21.397015-3.612483 38.903664-1.806242 52.381004C29.316689 818.644233 31.956581 826.841791 35.29118 829.481682c3.056716 2.362008 11.810041 5.140841 26.259973 8.336499 14.449932 3.195658 31.261872 6.252374 50.296879 9.309091 17.64559 2.778833 35.846947 5.140841 54.465129 7.086024C166.313161 836.289824 166.868928 813.225509 167.285753 792.384261c0.416825-14.727815 0.694708-28.760923 0.694708-37.514247L167.980461 752.646947l0.694708-2.084125c11.254274-32.234464 41.682497-42.655088 68.637178-51.825237C244.537313 696.236635 251.76228 693.735685 258.570421 690.81791zM1113.200543 807.251018C1105.558752 788.493894 1090.969878 773.488195 1074.157938 762.372863 1041.089824 739.586431 1000.796744 731.249932 966.06133 711.659159c-11.532157-6.947083-23.342198-15.97829-27.788331-29.177748-2.084125-18.062415-1.389417-36.263772-1.389417-54.465129 6.113433-4.585075 10.420624-11.254274 14.172049-17.784532C958.697422 596.059701 964.116147 580.637178 966.339213 564.797829c5.696608-1.111533 10.559566-4.446133 13.755224-9.170149C986.068928 546.735414 988.291995 536.036906 989.264586 525.616282 990.098236 516.446133 986.485753 506.9981 979.121845 501.301493c9.170149-30.150339 15.561465-61.967978 12.226866-93.507734C989.403528 388.897693 982.734328 369.584803 968.423338 356.524288c-9.864858-9.031208-23.064315-13.755224-36.12483-15.700407C928.963908 336.099864 924.9346 331.792673 919.9327 328.874898 906.45536 320.538399 890.199186 318.454274 874.63772 318.176391c-27.510448 0.416825-56.410312 5.0019-79.196744 21.397015-11.393216 8.058616-20.424423 19.173948-26.398915 31.678697-7.363908 15.283582-10.559566 32.373406-11.254274 49.185346C756.676255 447.808955 761.539213 474.902578 768.208412 501.301493 761.26133 506.720217 757.509905 515.473541 757.92673 524.226866c0.555767 8.614383 2.223066 17.367707 5.83555 25.287381 3.056716 7.363908 9.031208 13.894166 17.228765 15.422524 2.084125 15.005699 7.224966 29.594573 14.310991 42.932972 4.16825 7.502849 8.753324 15.005699 15.700407 20.285482 0 18.201357 0.694708 36.402714-1.389417 54.465129-0.83365 2.50095-1.945183 4.724016-3.3346 6.947083 0.555767 0.277883 1.111533 0.416825 1.528358 0.694708 6.808141 2.778833 14.033107 5.279783 21.258073 7.780733 26.954681 9.309091 57.382904 19.729715 68.637178 51.825237l0.694708 2.084125 0 2.223066c0 8.753324 0.277883 22.64749 0.694708 37.375305 0.416825 17.228765 0.83365 36.263772 0.972592 52.381004 73.778019 0 147.69498 0 221.472999 0C1120.703392 831.287924 1118.341384 818.783175 1113.200543 807.251018zM798.775577 703.183718C763.484396 688.455902 724.441791 671.366079 689.289552 657.055088 679.146811 654.276255 669.143012 651.636364 659.139213 648.857531 647.051289 640.659973 635.38019 613.427408 628.988874 599.950068c-6.391316-0.83365-12.782632-1.806242-19.173948-2.778833C610.787517 576.329986 623.848033 575.218453 628.988874 559.240163 633.435007 545.068114 629.405699 526.727815 636.630665 513.806242c5.0019-9.031208 16.256174-9.170149 21.81384-16.950882C663.585346 489.769335 666.919946 477.542469 668.448304 468.789145 671.366079 453.088738 673.867028 431.41384 666.364179 415.852374c-4.307191-9.031208-7.086024-9.864858-8.336499-20.841248-1.389417-13.199457 3.890366-56.410312 4.16825-65.719403 0.555767-24.175848 0-26.121031-5.974491-49.741113 0 0-7.224966-21.397015-18.47924-27.788331L615.372592 247.871913l-13.894166-12.782632C545.762822 201.048575 485.878969 224.94654 453.783446 237.868114c-46.12863 14.866757-75.445319 59.744912-55.020896 155.614654 3.473541 16.395115-9.031208 23.620081-8.197558 32.651289 1.806242 19.590773 2.223066 66.553053 20.841248 78.08521C413.073541 505.191859 426.272999 508.526459 426.272999 507.553867 428.07924 526.588874 429.885482 545.623881 431.691723 564.658887c4.585075 12.643691 15.839349 14.033107 19.035007 31.817639L436.415739 599.950068C430.024423 613.427408 418.353324 640.659973 406.2654 648.857531 396.261601 651.636364 386.257802 654.276255 376.254003 657.055088 340.962822 671.366079 301.920217 688.455902 266.629037 703.183718 234.533514 716.661058 196.046676 721.524016 184.375577 754.870014c0 22.64749-2.084125 76.278969-1.528358 106.012483l307.2 0 22.508548-152.696879L493.798643 668.865129l43.210855-20.563365 36.402714 20.14654L553.404613 708.880326l35.569064 152.002171 293.583718 0c0.555767-29.733514-1.528358-83.226052-1.528358-106.012483C869.357938 721.524016 831.010041 716.661058 798.775577 703.183718z"  /></svg>