<svg class="svg-icon" style="width: 1em; height: 1em;vertical-align: middle;fill: currentColor;overflow: hidden;" viewBox="0 0 1024 1024" version="1.1" xmlns="http://www.w3.org/2000/svg"><path d="M230.8 961.5c33 0 60-27 60-60s-27-60-60-60-60 27-60 60c0 33.1 26.9 60 60 60z" fill="#4C0094" /><path d="M230.8 891.5m-60 0a60 60 0 1 0 120 0 60 60 0 1 0-120 0Z" fill="#4C0295" /><path d="M230.8 881.4m-60 0a60 60 0 1 0 120 0 60 60 0 1 0-120 0Z" fill="#4C0596" /><path d="M230.8 871.2m-60 0a60 60 0 1 0 120 0 60 60 0 1 0-120 0Z" fill="#4C0797" /><path d="M230.8 861m-60 0a60 60 0 1 0 120 0 60 60 0 1 0-120 0Z" fill="#4D0A98" /><path d="M230.8 850.9m-60 0a60 60 0 1 0 120 0 60 60 0 1 0-120 0Z" fill="#4D0C99" /><path d="M230.8 840.7m-60 0a60 60 0 1 0 120 0 60 60 0 1 0-120 0Z" fill="#4D0F9A" /><path d="M230.8 830.6m-60 0a60 60 0 1 0 120 0 60 60 0 1 0-120 0Z" fill="#4D119B" /><path d="M230.8 820.4m-60 0a60 60 0 1 0 120 0 60 60 0 1 0-120 0Z" fill="#4D149C" /><path d="M230.8 810.3m-60 0a60 60 0 1 0 120 0 60 60 0 1 0-120 0Z" fill="#4D169E" /><path d="M230.8 800.1m-60 0a60 60 0 1 0 120 0 60 60 0 1 0-120 0Z" fill="#4D199F" /><path d="M230.8 789.9m-60 0a60 60 0 1 0 120 0 60 60 0 1 0-120 0Z" fill="#4D1BA0" /><path d="M230.8 779.8m-60 0a60 60 0 1 0 120 0 60 60 0 1 0-120 0Z" fill="#4E1EA1" /><path d="M230.8 769.6m-60 0a60 60 0 1 0 120 0 60 60 0 1 0-120 0Z" fill="#4E20A2" /><path d="M230.8 759.5m-60 0a60 60 0 1 0 120 0 60 60 0 1 0-120 0Z" fill="#4E23A3" /><path d="M230.8 749.3m-60 0a60 60 0 1 0 120 0 60 60 0 1 0-120 0Z" fill="#4E25A4" /><path d="M230.8 739.2m-60 0a60 60 0 1 0 120 0 60 60 0 1 0-120 0Z" fill="#4E28A5" /><path d="M230.8 729m-60 0a60 60 0 1 0 120 0 60 60 0 1 0-120 0Z" fill="#4E2AA6" /><path d="M230.8 718.8m-60 0a60 60 0 1 0 120 0 60 60 0 1 0-120 0Z" fill="#4E2DA7" /><path d="M230.8 708.7m-60 0a60 60 0 1 0 120 0 60 60 0 1 0-120 0Z" fill="#4E2FA8" /><path d="M230.8 698.5m-60 0a60 60 0 1 0 120 0 60 60 0 1 0-120 0Z" fill="#4F32A9" /><path d="M230.8 688.4m-60 0a60 60 0 1 0 120 0 60 60 0 1 0-120 0Z" fill="#4F34AA" /><path d="M230.8 678.2m-60 0a60 60 0 1 0 120 0 60 60 0 1 0-120 0Z" fill="#4F37AB" /><path d="M230.8 668.1m-60 0a60 60 0 1 0 120 0 60 60 0 1 0-120 0Z" fill="#4F39AC" /><path d="M230.8 657.9m-60 0a60 60 0 1 0 120 0 60 60 0 1 0-120 0Z" fill="#4F3CAD" /><path d="M230.8 647.8m-60 0a60 60 0 1 0 120 0 60 60 0 1 0-120 0Z" fill="#4F3EAE" /><path d="M230.8 637.6m-60 0a60 60 0 1 0 120 0 60 60 0 1 0-120 0Z" fill="#4F41B0" /><path d="M230.8 627.4m-60 0a60 60 0 1 0 120 0 60 60 0 1 0-120 0Z" fill="#4F43B1" /><path d="M230.8 617.3m-60 0a60 60 0 1 0 120 0 60 60 0 1 0-120 0Z" fill="#5046B2" /><path d="M230.8 607.1m-60 0a60 60 0 1 0 120 0 60 60 0 1 0-120 0Z" fill="#5048B3" /><path d="M230.8 597m-60 0a60 60 0 1 0 120 0 60 60 0 1 0-120 0Z" fill="#504BB4" /><path d="M230.8 586.8m-60 0a60 60 0 1 0 120 0 60 60 0 1 0-120 0Z" fill="#504DB5" /><path d="M230.8 576.7m-60 0a60 60 0 1 0 120 0 60 60 0 1 0-120 0Z" fill="#5050B6" /><path d="M230.8 566.5m-60 0a60 60 0 1 0 120 0 60 60 0 1 0-120 0Z" fill="#5052B7" /><path d="M230.8 556.3m-60 0a60 60 0 1 0 120 0 60 60 0 1 0-120 0Z" fill="#5055B8" /><path d="M230.8 546.2m-60 0a60 60 0 1 0 120 0 60 60 0 1 0-120 0Z" fill="#5157B9" /><path d="M230.8 536m-60 0a60 60 0 1 0 120 0 60 60 0 1 0-120 0Z" fill="#515ABA" /><path d="M230.8 525.9m-60 0a60 60 0 1 0 120 0 60 60 0 1 0-120 0Z" fill="#515CBB" /><path d="M230.8 515.7m-60 0a60 60 0 1 0 120 0 60 60 0 1 0-120 0Z" fill="#515FBC" /><path d="M230.8 505.6m-60 0a60 60 0 1 0 120 0 60 60 0 1 0-120 0Z" fill="#5161BD" /><path d="M230.8 495.4m-60 0a60 60 0 1 0 120 0 60 60 0 1 0-120 0Z" fill="#5164BE" /><path d="M230.8 485.2m-60 0a60 60 0 1 0 120 0 60 60 0 1 0-120 0Z" fill="#5166BF" /><path d="M230.8 475.1m-60 0a60 60 0 1 0 120 0 60 60 0 1 0-120 0Z" fill="#5169C0" /><path d="M230.8 464.9m-60 0a60 60 0 1 0 120 0 60 60 0 1 0-120 0Z" fill="#526BC2" /><path d="M230.8 454.8m-60 0a60 60 0 1 0 120 0 60 60 0 1 0-120 0Z" fill="#526EC3" /><path d="M230.8 444.6m-60 0a60 60 0 1 0 120 0 60 60 0 1 0-120 0Z" fill="#5270C4" /><path d="M230.8 434.5m-60 0a60 60 0 1 0 120 0 60 60 0 1 0-120 0Z" fill="#5273C5" /><path d="M230.8 424.3m-60 0a60 60 0 1 0 120 0 60 60 0 1 0-120 0Z" fill="#5275C6" /><path d="M230.8 414.2m-60 0a60 60 0 1 0 120 0 60 60 0 1 0-120 0Z" fill="#5278C7" /><path d="M230.8 404m-60 0a60 60 0 1 0 120 0 60 60 0 1 0-120 0Z" fill="#527AC8" /><path d="M230.8 393.8m-60 0a60 60 0 1 0 120 0 60 60 0 1 0-120 0Z" fill="#527DC9" /><path d="M230.8 383.7m-60 0a60 60 0 1 0 120 0 60 60 0 1 0-120 0Z" fill="#537FCA" /><path d="M230.8 373.5m-60 0a60 60 0 1 0 120 0 60 60 0 1 0-120 0Z" fill="#5382CB" /><path d="M230.8 363.4m-60 0a60 60 0 1 0 120 0 60 60 0 1 0-120 0Z" fill="#5384CC" /><path d="M230.8 353.2m-60 0a60 60 0 1 0 120 0 60 60 0 1 0-120 0Z" fill="#5387CD" /><path d="M230.8 343.1m-60 0a60 60 0 1 0 120 0 60 60 0 1 0-120 0Z" fill="#5389CE" /><path d="M230.8 332.9m-60 0a60 60 0 1 0 120 0 60 60 0 1 0-120 0Z" fill="#538CCF" /><path d="M230.8 322.7m-60 0a60 60 0 1 0 120 0 60 60 0 1 0-120 0Z" fill="#538ED0" /><path d="M230.8 312.6m-60 0a60 60 0 1 0 120 0 60 60 0 1 0-120 0Z" fill="#5391D1" /><path d="M230.8 302.4m-60 0a60 60 0 1 0 120 0 60 60 0 1 0-120 0Z" fill="#5493D3" /><path d="M230.8 292.3m-60 0a60 60 0 1 0 120 0 60 60 0 1 0-120 0Z" fill="#5496D4" /><path d="M230.8 282.1m-60 0a60 60 0 1 0 120 0 60 60 0 1 0-120 0Z" fill="#5498D5" /><path d="M230.8 272m-60 0a60 60 0 1 0 120 0 60 60 0 1 0-120 0Z" fill="#549BD6" /><path d="M230.8 261.8m-60 0a60 60 0 1 0 120 0 60 60 0 1 0-120 0Z" fill="#549DD7" /><path d="M230.8 251.6m-60 0a60 60 0 1 0 120 0 60 60 0 1 0-120 0Z" fill="#54A0D8" /><path d="M230.8 241.5m-60 0a60 60 0 1 0 120 0 60 60 0 1 0-120 0Z" fill="#54A2D9" /><path d="M230.8 231.3m-60 0a60 60 0 1 0 120 0 60 60 0 1 0-120 0Z" fill="#54A5DA" /><path d="M230.8 221.2m-60 0a60 60 0 1 0 120 0 60 60 0 1 0-120 0Z" fill="#55A7DB" /><path d="M230.8 211m-60 0a60 60 0 1 0 120 0 60 60 0 1 0-120 0Z" fill="#55AADC" /><path d="M230.8 200.9m-60 0a60 60 0 1 0 120 0 60 60 0 1 0-120 0Z" fill="#55ACDD" /><path d="M230.8 190.7m-60 0a60 60 0 1 0 120 0 60 60 0 1 0-120 0Z" fill="#55AFDE" /><path d="M230.8 180.5m-60 0a60 60 0 1 0 120 0 60 60 0 1 0-120 0Z" fill="#55B1DF" /><path d="M230.8 170.4m-60 0a60 60 0 1 0 120 0 60 60 0 1 0-120 0Z" fill="#55B4E0" /><path d="M230.8 160.2m-60 0a60 60 0 1 0 120 0 60 60 0 1 0-120 0Z" fill="#55B6E1" /><path d="M230.8 150.1m-60 0a60 60 0 1 0 120 0 60 60 0 1 0-120 0Z" fill="#56B9E2" /><path d="M230.8 139.9m-60 0a60 60 0 1 0 120 0 60 60 0 1 0-120 0Z" fill="#56BBE3" /><path d="M230.8 129.8m-60 0a60 60 0 1 0 120 0 60 60 0 1 0-120 0Z" fill="#56BEE5" /><path d="M235.7 124.5m-60 0a60 60 0 1 0 120 0 60 60 0 1 0-120 0Z" fill="#56C0E6" /><path d="M245.8 124.3m-60 0a60 60 0 1 0 120 0 60 60 0 1 0-120 0Z" fill="#56C3E7" /><path d="M256 124.2m-60 0a60 60 0 1 0 120 0 60 60 0 1 0-120 0Z" fill="#56C5E8" /><path d="M266.1 124.1m-60 0a60 60 0 1 0 120 0 60 60 0 1 0-120 0Z" fill="#56C8E9" /><path d="M276.3 124m-60 0a60 60 0 1 0 120 0 60 60 0 1 0-120 0Z" fill="#56CAEA" /><path d="M286.5 123.9m-60 0a60 60 0 1 0 120 0 60 60 0 1 0-120 0Z" fill="#57CDEB" /><path d="M296.6 123.8m-60 0a60 60 0 1 0 120 0 60 60 0 1 0-120 0Z" fill="#57CFEC" /><path d="M306.8 123.7m-60 0a60 60 0 1 0 120 0 60 60 0 1 0-120 0Z" fill="#57D2ED" /><path d="M316.9 123.6m-60 0a60 60 0 1 0 120 0 60 60 0 1 0-120 0Z" fill="#57D4EE" /><path d="M327.1 123.5m-60 0a60 60 0 1 0 120 0 60 60 0 1 0-120 0Z" fill="#57D7EF" /><path d="M337.2 123.4m-60 0a60 60 0 1 0 120 0 60 60 0 1 0-120 0Z" fill="#57D9F0" /><path d="M347.4 123.3m-60 0a60 60 0 1 0 120 0 60 60 0 1 0-120 0Z" fill="#57DCF1" /><path d="M357.5 123.2m-60 0a60 60 0 1 0 120 0 60 60 0 1 0-120 0Z" fill="#57DEF2" /><path d="M367.7 123.1m-60 0a60 60 0 1 0 120 0 60 60 0 1 0-120 0Z" fill="#58E1F3" /><path d="M377.9 123m-60 0a60 60 0 1 0 120 0 60 60 0 1 0-120 0Z" fill="#58E3F4" /><path d="M388 122.9m-60 0a60 60 0 1 0 120 0 60 60 0 1 0-120 0Z" fill="#58E6F5" /><path d="M398.2 122.8m-60 0a60 60 0 1 0 120 0 60 60 0 1 0-120 0Z" fill="#58E8F7" /><path d="M408.3 122.7m-60 0a60 60 0 1 0 120 0 60 60 0 1 0-120 0Z" fill="#58EBF8" /><path d="M418.5 122.6m-60 0a60 60 0 1 0 120 0 60 60 0 1 0-120 0Z" fill="#58EDF9" /><path d="M428.6 122.5m-60 0a60 60 0 1 0 120 0 60 60 0 1 0-120 0Z" fill="#58F0FA" /><path d="M438.8 122.5m-60 0a60 60 0 1 0 120 0 60 60 0 1 0-120 0Z" fill="#58F2FB" /><path d="M448.9 123.1m-60 0a60 60 0 1 0 120 0 60 60 0 1 0-120 0Z" fill="#59F5FC" /><path d="M459 124.3m-60 0a60 60 0 1 0 120 0 60 60 0 1 0-120 0Z" fill="#59F7FD" /><path d="M469 126m-60 0a60 60 0 1 0 120 0 60 60 0 1 0-120 0Z" fill="#59FAFE" /><path d="M478.8 188.3c33 0 60-27 60-60s-27-60-60-60-60 27-60 60c0 33.1 26.9 60 60 60z" fill="#59FCFF" /><path d="M493 132.8m-60 0a60 60 0 1 0 120 0 60 60 0 1 0-120 0Z" fill="#59FAFF" /><path d="M506.8 138.4m-60 0a60 60 0 1 0 120 0 60 60 0 1 0-120 0Z" fill="#5AF8FF" /><path d="M520.1 145.2m-60 0a60 60 0 1 0 120 0 60 60 0 1 0-120 0Z" fill="#5AF7FF" /><path d="M532.7 153.1m-60 0a60 60 0 1 0 120 0 60 60 0 1 0-120 0Z" fill="#5BF5FF" /><path d="M544.6 162m-60 0a60 60 0 1 0 120 0 60 60 0 1 0-120 0Z" fill="#5BF3FF" /><path d="M555.7 171.9m-60 0a60 60 0 1 0 120 0 60 60 0 1 0-120 0Z" fill="#5CF1FF" /><path d="M566 182.7m-60 0a60 60 0 1 0 120 0 60 60 0 1 0-120 0Z" fill="#5CEFFF" /><path d="M575.3 194.4m-60 0a60 60 0 1 0 120 0 60 60 0 1 0-120 0Z" fill="#5DEEFF" /><path d="M583.6 206.7m-60 0a60 60 0 1 0 120 0 60 60 0 1 0-120 0Z" fill="#5DECFF" /><path d="M590.8 219.8m-60 0a60 60 0 1 0 120 0 60 60 0 1 0-120 0Z" fill="#5EEAFF" /><path d="M596.9 233.4m-60 0a60 60 0 1 0 120 0 60 60 0 1 0-120 0Z" fill="#5EE8FF" /><path d="M601.8 247.4m-60 0a60 60 0 1 0 120 0 60 60 0 1 0-120 0Z" fill="#5EE6FF" /><path d="M605.5 261.9m-60 0a60 60 0 1 0 120 0 60 60 0 1 0-120 0Z" fill="#5FE5FF" /><path d="M607.9 276.6m-60 0a60 60 0 1 0 120 0 60 60 0 1 0-120 0Z" fill="#5FE3FF" /><path d="M609.1 291.4m-60 0a60 60 0 1 0 120 0 60 60 0 1 0-120 0Z" fill="#60E1FF" /><path d="M609.1 306.3m-60 0a60 60 0 1 0 120 0 60 60 0 1 0-120 0Z" fill="#60DFFF" /><path d="M607.7 321.2m-60 0a60 60 0 1 0 120 0 60 60 0 1 0-120 0Z" fill="#61DEFF" /><path d="M605.2 335.8m-60 0a60 60 0 1 0 120 0 60 60 0 1 0-120 0Z" fill="#61DCFF" /><path d="M601.4 350.3m-60 0a60 60 0 1 0 120 0 60 60 0 1 0-120 0Z" fill="#62DAFF" /><path d="M596.4 364.3m-60 0a60 60 0 1 0 120 0 60 60 0 1 0-120 0Z" fill="#62D8FF" /><path d="M590.2 377.8m-60 0a60 60 0 1 0 120 0 60 60 0 1 0-120 0Z" fill="#63D6FF" /><path d="M582.9 390.8m-60 0a60 60 0 1 0 120 0 60 60 0 1 0-120 0Z" fill="#63D5FF" /><path d="M574.5 403.1m-60 0a60 60 0 1 0 120 0 60 60 0 1 0-120 0Z" fill="#63D3FF" /><path d="M565.1 414.7m-60 0a60 60 0 1 0 120 0 60 60 0 1 0-120 0Z" fill="#64D1FF" /><path d="M554.7 425.4m-60 0a60 60 0 1 0 120 0 60 60 0 1 0-120 0Z" fill="#64CFFF" /><path d="M543.5 435.2m-60 0a60 60 0 1 0 120 0 60 60 0 1 0-120 0Z" fill="#65CDFF" /><path d="M531.5 444.1m-60 0a60 60 0 1 0 120 0 60 60 0 1 0-120 0Z" fill="#65CCFF" /><path d="M518.8 451.8m-60 0a60 60 0 1 0 120 0 60 60 0 1 0-120 0Z" fill="#66CAFF" /><path d="M505.5 458.5m-60 0a60 60 0 1 0 120 0 60 60 0 1 0-120 0Z" fill="#66C8FF" /><path d="M491.7 464m-60 0a60 60 0 1 0 120 0 60 60 0 1 0-120 0Z" fill="#67C6FF" /><path d="M477.4 468.4m-60 0a60 60 0 1 0 120 0 60 60 0 1 0-120 0Z" fill="#67C4FF" /><path d="M462.8 471.4m-60 0a60 60 0 1 0 120 0 60 60 0 1 0-120 0Z" fill="#68C3FF" /><path d="M448 473.3m-60 0a60 60 0 1 0 120 0 60 60 0 1 0-120 0Z" fill="#68C1FF" /><path d="M433.9 473.9m-60 0a60 60 0 1 0 120 0 60 60 0 1 0-120 0Z" fill="#68BFFF" /><path d="M448.8 473.9m-60 0a60 60 0 1 0 120 0 60 60 0 1 0-120 0Z" fill="#69BDFF" /><path d="M463.7 473.9m-60 0a60 60 0 1 0 120 0 60 60 0 1 0-120 0Z" fill="#69BBFF" /><path d="M478.6 473.9m-60 0a60 60 0 1 0 120 0 60 60 0 1 0-120 0Z" fill="#6ABAFF" /><path d="M493.5 474m-60 0a60 60 0 1 0 120 0 60 60 0 1 0-120 0Z" fill="#6AB8FF" /><path d="M508.4 474m-60 0a60 60 0 1 0 120 0 60 60 0 1 0-120 0Z" fill="#6BB6FF" /><path d="M523.3 474m-60 0a60 60 0 1 0 120 0 60 60 0 1 0-120 0Z" fill="#6BB4FF" /><path d="M538.2 474m-60 0a60 60 0 1 0 120 0 60 60 0 1 0-120 0Z" fill="#6CB3FF" /><path d="M553.1 474m-60 0a60 60 0 1 0 120 0 60 60 0 1 0-120 0Z" fill="#6CB1FF" /><path d="M568 474m-60 0a60 60 0 1 0 120 0 60 60 0 1 0-120 0Z" fill="#6DAFFF" /><path d="M582.9 474.1m-60 0a60 60 0 1 0 120 0 60 60 0 1 0-120 0Z" fill="#6DADFF" /><path d="M597.8 474.9m-60 0a60 60 0 1 0 120 0 60 60 0 1 0-120 0Z" fill="#6DABFF" /><path d="M612.6 476.6m-60 0a60 60 0 1 0 120 0 60 60 0 1 0-120 0Z" fill="#6EAAFF" /><path d="M627.2 479.4m-60 0a60 60 0 1 0 120 0 60 60 0 1 0-120 0Z" fill="#6EA8FF" /><path d="M641.6 483.2m-60 0a60 60 0 1 0 120 0 60 60 0 1 0-120 0Z" fill="#6FA6FF" /><path d="M655.7 488.1m-60 0a60 60 0 1 0 120 0 60 60 0 1 0-120 0Z" fill="#6FA4FF" /><path d="M669.5 493.8m-60 0a60 60 0 1 0 120 0 60 60 0 1 0-120 0Z" fill="#70A2FF" /><path d="M682.8 500.6m-60 0a60 60 0 1 0 120 0 60 60 0 1 0-120 0Z" fill="#70A1FF" /><path d="M695.5 508.2m-60 0a60 60 0 1 0 120 0 60 60 0 1 0-120 0Z" fill="#719FFF" /><path d="M707.8 516.7m-60 0a60 60 0 1 0 120 0 60 60 0 1 0-120 0Z" fill="#719DFF" /><path d="M719.3 526.1m-60 0a60 60 0 1 0 120 0 60 60 0 1 0-120 0Z" fill="#729BFF" /><path d="M730.3 536.2m-60 0a60 60 0 1 0 120 0 60 60 0 1 0-120 0Z" fill="#7299FF" /><path d="M740.5 547.1m-60 0a60 60 0 1 0 120 0 60 60 0 1 0-120 0Z" fill="#7398FF" /><path d="M749.9 558.7m-60 0a60 60 0 1 0 120 0 60 60 0 1 0-120 0Z" fill="#7396FF" /><path d="M758.5 570.8m-60 0a60 60 0 1 0 120 0 60 60 0 1 0-120 0Z" fill="#7394FF" /><path d="M766.2 583.6m-60 0a60 60 0 1 0 120 0 60 60 0 1 0-120 0Z" fill="#7492FF" /><path d="M773 596.8m-60 0a60 60 0 1 0 120 0 60 60 0 1 0-120 0Z" fill="#7490FF" /><path d="M778.9 610.5m-60 0a60 60 0 1 0 120 0 60 60 0 1 0-120 0Z" fill="#758FFF" /><path d="M783.8 624.6m-60 0a60 60 0 1 0 120 0 60 60 0 1 0-120 0Z" fill="#758DFF" /><path d="M787.7 639m-60 0a60 60 0 1 0 120 0 60 60 0 1 0-120 0Z" fill="#768BFF" /><path d="M790.6 653.6m-60 0a60 60 0 1 0 120 0 60 60 0 1 0-120 0Z" fill="#7689FF" /><path d="M792.4 668.4m-60 0a60 60 0 1 0 120 0 60 60 0 1 0-120 0Z" fill="#7788FF" /><path d="M793.2 683.2m-60 0a60 60 0 1 0 120 0 60 60 0 1 0-120 0Z" fill="#7786FF" /><path d="M793.1 698.1m-60 0a60 60 0 1 0 120 0 60 60 0 1 0-120 0Z" fill="#7884FF" /><path d="M791.8 713m-60 0a60 60 0 1 0 120 0 60 60 0 1 0-120 0Z" fill="#7882FF" /><path d="M789.6 727.7m-60 0a60 60 0 1 0 120 0 60 60 0 1 0-120 0Z" fill="#7880FF" /><path d="M786.3 742.3m-60 0a60 60 0 1 0 120 0 60 60 0 1 0-120 0Z" fill="#797FFF" /><path d="M782 756.5m-60 0a60 60 0 1 0 120 0 60 60 0 1 0-120 0Z" fill="#797DFF" /><path d="M776.7 770.5m-60 0a60 60 0 1 0 120 0 60 60 0 1 0-120 0Z" fill="#7A7BFF" /><path d="M770.5 784m-60 0a60 60 0 1 0 120 0 60 60 0 1 0-120 0Z" fill="#7A79FF" /><path d="M763.3 797m-60 0a60 60 0 1 0 120 0 60 60 0 1 0-120 0Z" fill="#7B77FF" /><path d="M755.2 809.6m-60 0a60 60 0 1 0 120 0 60 60 0 1 0-120 0Z" fill="#7B76FF" /><path d="M746.3 821.5m-60 0a60 60 0 1 0 120 0 60 60 0 1 0-120 0Z" fill="#7C74FF" /><path d="M736.6 832.8m-60 0a60 60 0 1 0 120 0 60 60 0 1 0-120 0Z" fill="#7C72FF" /><path d="M726.1 843.4m-60 0a60 60 0 1 0 120 0 60 60 0 1 0-120 0Z" fill="#7D70FF" /><path d="M714.9 853.2m-60 0a60 60 0 1 0 120 0 60 60 0 1 0-120 0Z" fill="#7D6EFF" /><path d="M703 862.2m-60 0a60 60 0 1 0 120 0 60 60 0 1 0-120 0Z" fill="#7D6DFF" /><path d="M690.6 870.5m-60 0a60 60 0 1 0 120 0 60 60 0 1 0-120 0Z" fill="#7E6BFF" /><path d="M677.6 877.7m-60 0a60 60 0 1 0 120 0 60 60 0 1 0-120 0Z" fill="#7E69FF" /><path d="M664.2 884.1m-60 0a60 60 0 1 0 120 0 60 60 0 1 0-120 0Z" fill="#7F67FF" /><path d="M650.3 889.5m-60 0a60 60 0 1 0 120 0 60 60 0 1 0-120 0Z" fill="#7F65FF" /><path d="M636.1 893.9m-60 0a60 60 0 1 0 120 0 60 60 0 1 0-120 0Z" fill="#8064FF" /><path d="M621.6 897.4m-60 0a60 60 0 1 0 120 0 60 60 0 1 0-120 0Z" fill="#8062FF" /><path d="M606.8 899.8m-60 0a60 60 0 1 0 120 0 60 60 0 1 0-120 0Z" fill="#8160FF" /><path d="M592 901.2m-60 0a60 60 0 1 0 120 0 60 60 0 1 0-120 0Z" fill="#815EFF" /><path d="M577.1 901.5m-60 0a60 60 0 1 0 120 0 60 60 0 1 0-120 0Z" fill="#825DFF" /><path d="M562.2 901.5m-60 0a60 60 0 1 0 120 0 60 60 0 1 0-120 0Z" fill="#825BFF" /><path d="M547.3 901.5m-60 0a60 60 0 1 0 120 0 60 60 0 1 0-120 0Z" fill="#8259FF" /><path d="M532.4 901.5m-60 0a60 60 0 1 0 120 0 60 60 0 1 0-120 0Z" fill="#8357FF" /><path d="M517.5 901.5m-60 0a60 60 0 1 0 120 0 60 60 0 1 0-120 0Z" fill="#8355FF" /><path d="M502.6 901.5m-60 0a60 60 0 1 0 120 0 60 60 0 1 0-120 0Z" fill="#8454FF" /><path d="M487.7 901.5m-60 0a60 60 0 1 0 120 0 60 60 0 1 0-120 0Z" fill="#8452FF" /><path d="M472.8 901.5m-60 0a60 60 0 1 0 120 0 60 60 0 1 0-120 0Z" fill="#8550FF" /><path d="M457.9 901.5m-60 0a60 60 0 1 0 120 0 60 60 0 1 0-120 0Z" fill="#854EFF" /><path d="M443 901.5m-60 0a60 60 0 1 0 120 0 60 60 0 1 0-120 0Z" fill="#864CFF" /><path d="M428.1 901.5m-60 0a60 60 0 1 0 120 0 60 60 0 1 0-120 0Z" fill="#864BFF" /><path d="M413.2 901.5m-60 0a60 60 0 1 0 120 0 60 60 0 1 0-120 0Z" fill="#8749FF" /><path d="M398.3 961.5c33 0 60-27 60-60s-27-60-60-60-60 27-60 60c0 33.1 26.9 60 60 60z" fill="#8747FF" /></svg>