<svg class="svg-icon" style="width: 1em; height: 1em;vertical-align: middle;fill: currentColor;overflow: hidden;" viewBox="0 0 1024 1024" version="1.1" xmlns="http://www.w3.org/2000/svg"><path d="M926.8 636.1c-8.5-25.6-68-36.6-82.6-31.5-21.4 7.5-12.5 66.6-55.5 66.1-60-0.7-77.2-72-63.5-86.9 26.1-28.3 130.1-8.7 169.5-38.1 24-17.8 38.6-117.4-0.5-171.5-39.1-54-118.5-73.5-200-14.9-49.1 35.3-71.5 90.9-81.7 136.3-1.5-1.3-3.1-2.6-4.6-3.8-48.7-37.3-132.3-27.2-132.3-27.2s131.2-89.2 85.7-212c-44.6-120.2-389.5-57.1-438.2 23.3-48.7 80.4-22 505.1 9.5 537.7 65.6 67.9 385.1 23.5 484.7-92.1 6.7-7.8 12.5-15.6 17.6-23.4 20.3 33.5 53.8 63.5 108.8 75.3 150.6 32.2 189.7-117.7 183.1-137.3zM228.5 476.2c-11-8.1-2.3-141.7 25.2-152.1 27.5-10.4 115.1-29.7 133.7 13.4 18.6 43.1-4.5 99.3-35.2 118-26.6 16.1-112.7 28.7-123.7 20.7z m211.2 231.6c-39.4 25.5-125.8 35-154 26.7-28.3-8.3-47.3-140.8-37.1-149.7 10.3-8.9 136.3-24.8 165.7-14.6 61.4 21.2 82.2 100.8 25.4 137.6z m264.8-213.1c-15.8-29.7 19.9-83.3 49-91.2 74.4-20.1 87 51.1 79.5 76.2-7 23.3-119.4 32.1-128.5 15z" fill="#1D1D1B" /><path d="M885.3 277c7.4-12.7 18-80.4 0-95.3-18-14.8-240.6 23-250.1 30.4-9.5 7.4-15.5 64.8 1.4 80.7 16.9 16 241.3-3.1 248.7-15.8z" fill="#1D1D1B" /></svg>