<svg class="svg-icon" style="width: 1em; height: 1em;vertical-align: middle;fill: currentColor;overflow: hidden;" viewBox="0 0 1024 1024" version="1.1" xmlns="http://www.w3.org/2000/svg"><path d="M626.3 773.7c-2.1-103.2 35.6-164.3 35.6-272.6 0-108.4-94.3-314.6-94.3-413.7H459.2c0 99.1-94.3 305.4-94.3 413.7 0 108.4 37.7 169.4 35.6 272.6-2.1 103.2-39.7 118.9-35.6 158.1 4.1 39.2 20.5 57.7 148.5 55.5 128 2.2 144.4-16.3 148.5-55.5 4.1-39.2-33.6-54.9-35.6-158.1z" fill="#BC6C4A" /><path d="M626.3 773.7c-2.1-103.2 35.6-164.3 35.6-272.6 0-108.4-94.3-314.6-94.3-413.7h-64.7c5.4 102.2 94 299.4 94 404.5 0 108.4-37.7 169.4-35.6 272.6s39.7 118.9 35.6 158.1c-4.1 39.2-20.5 57.7-148.5 55.5-18.7 0.3-34.9 0.2-49.2-0.4 21.4 7.4 56.4 10.6 114.1 9.6 128 2.2 144.4-16.3 148.5-55.5 4.2-39.2-33.5-54.9-35.5-158.1z" fill="#9B472A" /><path d="M585.7 93.6H441l5.9-50.1c1.3-11.2 9.7-19.5 19.6-19.5h93.7c9.9 0 18.3 8.3 19.6 19.5l5.9 50.1z" fill="#FFAE85" /><path d="M364.9 501c0 29.4 2.8 55.3 6.8 79.5h283.4c4-24.2 6.8-50.1 6.8-79.5 0-31.4-7.9-70.9-19.1-113.7H384c-11.2 42.8-19.1 82.4-19.1 113.7z" fill="#FF4D4D" /><path d="M661.7 493.6c0-1.3-0.1-2.6-0.2-3.9 0-0.7-0.1-1.5-0.1-2.2-0.1-1.3-0.2-2.5-0.3-3.8-0.1-0.8-0.1-1.5-0.2-2.3-0.1-1.3-0.2-2.6-0.4-4-0.1-0.7-0.1-1.5-0.2-2.2-0.2-1.5-0.3-3-0.5-4.4-0.1-0.6-0.1-1.2-0.2-1.8-0.3-2-0.5-4.1-0.8-6.2v-0.2c-0.3-2.3-0.7-4.5-1-6.8 0-0.2-0.1-0.5-0.1-0.7-0.3-2-0.7-4.1-1-6.1l-0.3-1.5c-0.3-1.8-0.7-3.6-1-5.5-0.1-0.6-0.2-1.1-0.3-1.7-0.4-1.9-0.7-3.7-1.1-5.6l-0.3-1.5c-0.4-2.1-0.9-4.2-1.3-6.3-0.1-0.3-0.1-0.5-0.2-0.8-2.2-10-4.6-20.3-7.3-30.8-0.7-2.6-1.4-5.3-2.1-8h-62.5c9.9 39.2 16.7 75.4 16.7 104.5 0 33.2-3.5 61.9-8.4 88.8h66.5c1.5-9.1 2.8-18.4 3.9-28v-0.4c0.2-1.4 0.3-2.9 0.5-4.3 0-0.3 0.1-0.7 0.1-1 0.1-1.2 0.2-2.4 0.4-3.7 0-0.5 0.1-0.9 0.1-1.4 0.1-1.1 0.2-2.2 0.3-3.4 0-0.5 0.1-1.1 0.1-1.6 0.1-1.1 0.2-2.1 0.2-3.2 0-0.6 0.1-1.2 0.1-1.8 0.1-1 0.1-2.1 0.2-3.1 0-0.6 0.1-1.3 0.1-1.9 0.1-1 0.1-2 0.2-3.1 0-0.7 0.1-1.3 0.1-2 0-1 0.1-2.1 0.1-3.1 0-0.7 0.1-1.3 0.1-2 0-1.1 0.1-2.1 0.1-3.2 0-0.7 0-1.3 0.1-2 0-1.2 0-2.3 0.1-3.5v-1.7-5.3c0-1.8 0-3.7-0.1-5.6-0.1-0.5-0.1-1.1-0.1-1.7z" fill="#BF2E2E" /><path d="M665.2 881.2c-9.9-22.4-22.3-50.3-23.5-107.9-1-50.3 7.7-89.9 16.9-132 9.2-41.8 18.7-85 18.7-140.4 0-57.7-25.1-140.2-49.4-220.1-19.6-64.4-39.7-130.7-44-177h1.8c2.9 0 5.7-1.3 7.7-3.5s2.9-5.1 2.5-8.1L590 42.1c-1.9-16.3-14.7-28.6-29.9-28.6h-93.7c-15.1 0-27.9 12.3-29.9 28.6l-5.9 50.1c-0.3 2.9 0.6 5.9 2.5 8.1 2 2.2 4.8 3.5 7.7 3.5h1.8c-4.3 46.4-24.5 112.7-44 177-24.3 79.8-49.4 162.4-49.4 220.1 0 55.3 9.5 98.6 18.7 140.4 9.2 42 17.9 81.7 16.9 132-1.2 57.5-13.5 85.4-23.5 107.9-7.6 17.1-14.2 31.9-12 52.2 2.1 20.4 8.2 42.9 36.8 55.8 23.7 10.6 61.7 14.7 127 13.6 6.9 0.1 13.6 0.2 19.9 0.2 53.4 0 86-4.3 107.1-13.8 28.6-12.9 34.7-35.4 36.8-55.8 2.5-20.3-4.1-35.1-11.7-52.2zM380.4 501c0-28.3 6.9-64.3 17-103.4h232.1c10 39.2 17 75.2 17 103.4 0 25.2-2.1 47.9-5.3 69.2H385.7c-3.2-21.3-5.3-44-5.3-69.2z m76.7-456.2c0.7-5.9 4.7-10.4 9.4-10.4h93.7c4.7 0 8.7 4.5 9.4 10.4l4.5 38.6H452.6l4.5-38.6z m16.8 59.1h78.9c4 49.6 24.2 116.1 45.5 186 8.9 29.2 17.9 58.7 25.6 87H402.8c7.8-28.3 16.7-57.8 25.6-87 21.3-69.9 41.5-136.4 45.5-186z m172.6 826.3c-1.9 18.2-6.1 25.1-18.7 30.8-18.8 8.4-55 11.9-114.1 10.9h-0.6c-59 1-95.3-2.4-114.1-10.9-12.6-5.7-16.8-12.6-18.7-30.8-1.3-12.1 3-21.7 9.5-36.4 10.5-23.6 24.9-56 26.1-119.8 1.1-53.9-8.4-97.3-17.6-139.2-3.1-14.3-6.3-28.8-9.1-43.9h248.4c-2.8 15.1-6 29.6-9.1 43.9-9.2 41.9-18.7 85.3-17.6 139.2 1.3 63.8 15.6 96.1 26.1 119.8 6.4 14.6 10.7 24.3 9.5 36.4z" fill="#3F2D20" /></svg>