<svg class="svg-icon" style="width: 1em; height: 1em;vertical-align: middle;fill: currentColor;overflow: hidden;" viewBox="0 0 1024 1024" version="1.1" xmlns="http://www.w3.org/2000/svg"><path d="M513 512m-84.6 0a84.6 84.6 0 1 0 169.2 0 84.6 84.6 0 1 0-169.2 0Z" fill="#FFFFFF" /><path d="M552.9 117.4h-11.7v11.7zM484.8 117.4h-11.7l11.7 11.7zM214 252.9l-8.2 8.3h16.5zM262.2 204.8l-8.3 8.2 8.3 8.3zM118.4 472.1v11.7h11.7zM118.4 540.2v11.7l11.7-11.7zM253.9 811l8.3 8.2v-16.5zM205.8 762.8l8.2 8.3 8.3-8.3zM541.2 906.6h11.7l-11.7-11.7zM473.1 906.6h11.7v-11.7zM812 771.1l8.2-8.3h-16.5zM763.8 819.2l8.3-8.2-8.3-8.3zM907.6 483.8v-11.7l-11.7 11.7zM907.6 551.9v-11.7h-11.7z" fill="#FFFFFF" /><path d="M992.2 483.8h-96.3l11.7-11.7 19.9-19.9c11-11 11-28.9 0-39.9s-28.9-11-39.9 0l-71.5 71.5H653.9c-0.9 0-1.9 0-2.8 0.1-3.7-18.1-10.8-34.9-20.7-49.7 0.7-0.6 1.4-1.2 2.1-1.9l114.7-114.7h101.1c15.6 0 28.2-12.6 28.2-28.2s-12.6-28.2-28.2-28.2h-44.7l8.3-8.3 59.8-59.8c11-11 11-28.9 0-39.9s-28.9-11-39.9 0L772.1 213l-8.3 8.3v-44.7c0-15.6-12.6-28.2-28.2-28.2s-28.2 12.6-28.2 28.2v101.1L592.7 392.4c-0.7 0.7-1.3 1.4-1.9 2.1-14.9-9.9-31.7-17-49.7-20.7 0.1-0.9 0.1-1.9 0.1-2.8V208.8l71.5-71.5c11-11 11-28.9 0-39.9s-28.9-11-39.9 0l-19.9 19.9-11.7 11.7V32.8c0-15.6-12.6-28.2-28.2-28.2s-28.2 12.6-28.2 28.2v96.3l-11.7-11.7-19.9-19.9c-11-11-28.9-11-39.9 0s-11 28.9 0 39.9l71.5 71.5v162.3c0 0.9 0 1.9 0.1 2.8-18.1 3.7-34.9 10.8-49.7 20.7-0.6-0.7-1.2-1.4-1.9-2.1L318.5 277.7V176.6c0-15.6-12.6-28.2-28.2-28.2s-28.2 12.6-28.2 28.2v44.7l-8.3-8.3-59.8-59.8c-11-11-28.9-11-39.9 0s-11 28.9 0 39.9l59.8 59.8 8.3 8.3h-44.7c-15.6 0-28.2 12.6-28.2 28.2s12.6 28.2 28.2 28.2h101.1l114.7 114.7c0.7 0.7 1.4 1.3 2.1 1.9-9.9 14.9-17 31.7-20.7 49.7-0.9-0.1-1.9-0.1-2.8-0.1H209.8l-71.5-71.5c-11-11-28.9-11-39.9 0s-11 28.9 0 39.9l19.9 19.9 11.7 11.7H33.8c-15.6 0-28.2 12.6-28.2 28.2s12.6 28.2 28.2 28.2h96.3l-11.7 11.7-19.9 19.9c-11 11-11 28.9 0 39.9 5.5 5.5 12.7 8.3 19.9 8.3s14.4-2.8 19.9-8.3l71.5-71.5h162.3c0.9 0 1.9 0 2.8-0.1 3.7 18.1 10.8 34.9 20.7 49.7-0.7 0.6-1.4 1.2-2.1 1.9L278.7 706.5H177.6c-15.6 0-28.2 12.6-28.2 28.2s12.6 28.2 28.2 28.2h44.7l-8.3 8.3-59.8 59.8c-11 11-11 28.9 0 39.9 5.5 5.5 12.7 8.3 19.9 8.3s14.4-2.8 19.9-8.3l59.8-59.8 8.3-8.3v44.7c0 15.6 12.6 28.2 28.2 28.2s28.2-12.6 28.2-28.2V746.3l114.7-114.7c0.7-0.7 1.3-1.4 1.9-2.1 14.9 9.9 31.7 17 49.7 20.7-0.1 0.9-0.1 1.9-0.1 2.8v162.3l-71.5 71.5c-11 11-11 28.9 0 39.9s28.9 11 39.9 0l19.9-19.9 11.7-11.7v96.3c0 15.6 12.6 28.2 28.2 28.2s28.2-12.6 28.2-28.2v-96.3l11.7 11.7 19.9 19.9c5.5 5.5 12.7 8.3 19.9 8.3 7.2 0 14.4-2.8 19.9-8.3 11-11 11-28.9 0-39.9L541 815.3V652.9c0-0.9 0-1.9-0.1-2.8 18.1-3.7 34.9-10.8 49.7-20.7 0.6 0.7 1.2 1.4 1.9 2.1l114.7 114.7v101.1c0 15.6 12.6 28.2 28.2 28.2s28.2-12.6 28.2-28.2v-44.7l8.3 8.3 59.8 59.8c5.5 5.5 12.7 8.3 19.9 8.3 7.2 0 14.4-2.8 19.9-8.3 11-11 11-28.9 0-39.9L812 771.1l-8.3-8.3h44.7c15.6 0 28.2-12.6 28.2-28.2s-12.6-28.2-28.2-28.2H747.3L632.6 591.7c-0.7-0.7-1.4-1.3-2.1-1.9 9.9-14.9 17-31.7 20.7-49.7 0.9 0.1 1.9 0.1 2.8 0.1h162.3l71.5 71.5c5.5 5.5 12.7 8.3 19.9 8.3 7.2 0 14.4-2.8 19.9-8.3 11-11 11-28.9 0-39.9l-19.9-19.9-11.7-11.7h96.3c15.6 0 28.2-12.6 28.2-28.2s-12.8-28.2-28.3-28.2zM597.6 512c0 46.6-37.9 84.6-84.6 84.6s-84.6-37.9-84.6-84.6 37.9-84.6 84.6-84.6 84.6 38 84.6 84.6z" fill="" /><path d="M820.2 261.2l-8.2-8.3-8.3 8.3zM772.1 213l-8.3-8.2v16.5z" fill="#FFFFFF" /></svg>