<svg class="svg-icon" style="width: 1em; height: 1em;vertical-align: middle;fill: currentColor;overflow: hidden;" viewBox="0 0 1024 1024" version="1.1" xmlns="http://www.w3.org/2000/svg"><path d="M793.2416 566.70208c0 6.05184-4.90496 10.93632-10.9568 10.94656l-316.1088 0 53.95456 136.54016c1.78176 4.57728 0.32768 9.80992-3.61472 12.76928-3.92192 2.95936-9.34912 2.95936-13.25056-0.07168L235.03872 520.68352c-2.69312-2.06848-4.27008-5.29408-4.27008-8.67328-0.01024-3.42016 1.57696-6.61504 4.27008-8.69376l268.22656-206.22336c1.96608-1.49504 4.32128-2.27328 6.66624-2.27328 2.32448 0 4.62848 0.72704 6.6048 2.21184 3.92192 2.94912 5.376 8.18176 3.584 12.7488l-53.94432 136.5504 316.1088-0.01024c6.03136 0.01024 10.9568 4.90496 10.94656 10.9568L793.2416 566.70208zM911.13472 512c0 220.07808-179.05664 399.13472-399.13472 399.13472-220.08832 0-399.13472-179.0464-399.13472-399.13472S291.92192 112.86528 512 112.86528 911.13472 291.92192 911.13472 512zM867.36896 512c0-195.95264-159.40608-355.35872-355.36896-355.35872-195.9424 0-355.36896 159.40608-355.36896 355.35872C156.64128 707.95264 316.0576 867.35872 512 867.35872 707.95264 867.35872 867.36896 707.9424 867.36896 512z"  /></svg>