<svg class="svg-icon" style="width: 1.013671875em; height: 1em;vertical-align: middle;fill: currentColor;overflow: hidden;" viewBox="0 0 1038 1024" version="1.1" xmlns="http://www.w3.org/2000/svg"><path d="M492.962254 469.020845H268.40338a100.957746 100.957746 0 0 1-100.957746-100.957746V245.183099a100.957746 100.957746 0 0 1 100.957746-100.957747h123.456902a100.957746 100.957746 0 0 1 100.957746 100.957747zM268.40338 173.070423a72.112676 72.112676 0 0 0-72.112676 72.112676v122.447324a72.112676 72.112676 0 0 0 72.112676 72.112676h195.713803V245.183099a72.112676 72.112676 0 0 0-72.112676-72.112676zM778.816901 855.400563h-124.033802a100.957746 100.957746 0 0 1-100.957747-100.957746V531.181972H778.816901a100.957746 100.957746 0 0 1 100.957747 100.957746v122.447324a100.957746 100.957746 0 0 1-100.957747 100.813521zM582.670423 560.027042v194.415775a72.112676 72.112676 0 0 0 72.112676 72.112676H778.816901a72.112676 72.112676 0 0 0 72.112676-72.112676v-122.303099a72.112676 72.112676 0 0 0-72.112676-72.112676zM391.427606 855.977465h-122.447324a100.957746 100.957746 0 0 1-100.957747-100.957747v-123.456901a100.957746 100.957746 0 0 1 100.957747-100.957747h223.40507v224.414648a100.957746 100.957746 0 0 1-100.957746 100.957747z m-122.447324-296.527324a72.112676 72.112676 0 0 0-72.112676 72.112676v123.456901a72.112676 72.112676 0 0 0 72.112676 72.112676h122.447324a72.112676 72.112676 0 0 0 72.112676-72.112676V559.450141zM777.807324 469.597746H554.402254V245.183099a100.957746 100.957746 0 0 1 100.957746-100.957747h122.447324a100.957746 100.957746 0 0 1 100.957746 100.957747v123.456901a100.957746 100.957746 0 0 1-100.957746 100.957746z m-194.56-28.84507h194.56a72.112676 72.112676 0 0 0 72.112676-72.112676V245.183099a72.112676 72.112676 0 0 0-72.112676-72.112676h-122.447324a72.112676 72.112676 0 0 0-72.112676 72.112676z" fill="" /></svg>