<svg class="svg-icon" style="width: 1em; height: 1em;vertical-align: middle;fill: currentColor;overflow: hidden;" viewBox="0 0 1024 1024" version="1.1" xmlns="http://www.w3.org/2000/svg"><path d="M467.626667 494.933333h-3.413334c-6.826667 0-10.24-6.826667-13.653333-13.653333l-61.44-225.28H105.813333c-10.24 0-17.066667-6.826667-17.066666-17.066667s6.826667-17.066667 17.066666-17.066666h300.373334c6.826667 0 13.653333 6.826667 17.066666 13.653333l54.613334 204.8 170.666666-211.626667c3.413333-3.413333 6.826667-6.826667 13.653334-6.826666h215.04c30.72 0 61.44 17.066667 81.92 44.373333 23.893333 30.72 27.306667 71.68 13.653333 109.226667l-17.066667 47.786666c-17.066667 44.373333-54.613333 71.68-95.573333 71.68h-157.013333c-6.826667 0-10.24-3.413333-13.653334-6.826666-3.413333-3.413333-3.413333-10.24-3.413333-13.653334l44.373333-143.36c3.413333-10.24 13.653333-13.653333 20.48-10.24 10.24 3.413333 13.653333 13.653333 10.24 20.48l-37.546666 122.88h133.12c27.306667 0 51.2-20.48 64.853333-47.786666l17.066667-47.786667c10.24-27.306667 6.826667-58.026667-10.24-78.506667-13.653333-17.066667-30.72-30.72-54.613334-30.72h-208.213333L477.866667 491.52s-3.413333 3.413333-10.24 3.413333z" fill="" /><path d="M218.453333 494.933333H61.44c-6.826667 0-10.24-3.413333-13.653333-6.826666-3.413333-3.413333-3.413333-10.24-3.413334-13.653334l44.373334-143.36c3.413333-10.24 13.653333-17.066667 20.48-13.653333 10.24 3.413333 13.653333 13.653333 10.24 20.48l-37.546667 122.88h133.12c27.306667 0 51.2-20.48 64.853333-47.786667l17.066667-47.786666c10.24-27.306667 6.826667-58.026667-6.826667-78.506667-13.653333-20.48-34.133333-30.72-54.613333-30.72H191.146667c-10.24 0-17.066667-6.826667-17.066667-17.066667s6.826667-17.066667 17.066667-17.066666h44.373333c30.72 0 61.44 17.066667 81.92 44.373333 23.893333 30.72 27.306667 71.68 13.653333 109.226667l-17.066666 47.786666c-17.066667 44.373333-54.613333 71.68-95.573334 71.68zM505.173333 802.133333c-184.32 0-460.8-30.72-460.8-119.466666s276.48-119.466667 460.8-119.466667 460.8 30.72 460.8 119.466667-273.066667 119.466667-460.8 119.466666z m0-204.8c-279.893333 0-426.666667 54.613333-426.666666 85.333334s146.773333 85.333333 426.666666 85.333333 426.666667-54.613333 426.666667-85.333333-143.36-85.333333-426.666667-85.333334z" fill="" /><path d="M505.173333 733.866667c-133.12 0-290.133333-10.24-290.133333-51.2s157.013333-51.2 290.133333-51.2 290.133333 10.24 290.133334 51.2-157.013333 51.2-290.133334 51.2zM269.653333 682.666667c40.96 10.24 122.88 17.066667 235.52 17.066666s194.56-6.826667 235.52-17.066666c-40.96-10.24-122.88-17.066667-235.52-17.066667s-194.56 6.826667-235.52 17.066667z" fill="" /></svg>