<svg class="svg-icon" style="width: 1em; height: 1em;vertical-align: middle;fill: currentColor;overflow: hidden;" viewBox="0 0 1024 1024" version="1.1" xmlns="http://www.w3.org/2000/svg"><path d="M874.4 377.8c33 0 60-27 60-60s-27-60-60-60-60 27-60 60 26.9 60 60 60z" fill="#5100A1" /><path d="M870.9 312m-60 0a60 60 0 1 0 120 0 60 60 0 1 0-120 0Z" fill="#5102A2" /><path d="M867.4 306.3m-60 0a60 60 0 1 0 120 0 60 60 0 1 0-120 0Z" fill="#5105A3" /><path d="M863.8 300.6m-60 0a60 60 0 1 0 120 0 60 60 0 1 0-120 0Z" fill="#5107A4" /><path d="M860.1 295m-60 0a60 60 0 1 0 120 0 60 60 0 1 0-120 0Z" fill="#510AA5" /><path d="M856.3 289.5m-60 0a60 60 0 1 0 120 0 60 60 0 1 0-120 0Z" fill="#510CA6" /><path d="M852.4 284m-60 0a60 60 0 1 0 120 0 60 60 0 1 0-120 0Z" fill="#510FA7" /><path d="M848.4 278.6m-60 0a60 60 0 1 0 120 0 60 60 0 1 0-120 0Z" fill="#5211A8" /><path d="M844.3 273.2m-60 0a60 60 0 1 0 120 0 60 60 0 1 0-120 0Z" fill="#5214A8" /><path d="M840.1 267.9m-60 0a60 60 0 1 0 120 0 60 60 0 1 0-120 0Z" fill="#5216A9" /><path d="M835.8 262.7m-60 0a60 60 0 1 0 120 0 60 60 0 1 0-120 0Z" fill="#5219AA" /><path d="M831.5 257.6m-60 0a60 60 0 1 0 120 0 60 60 0 1 0-120 0Z" fill="#521BAB" /><path d="M827 252.6m-60 0a60 60 0 1 0 120 0 60 60 0 1 0-120 0Z" fill="#521EAC" /><path d="M822.5 247.6m-60 0a60 60 0 1 0 120 0 60 60 0 1 0-120 0Z" fill="#5220AD" /><path d="M817.8 242.7m-60 0a60 60 0 1 0 120 0 60 60 0 1 0-120 0Z" fill="#5223AE" /><path d="M813.1 237.9m-60 0a60 60 0 1 0 120 0 60 60 0 1 0-120 0Z" fill="#5225AF" /><path d="M808.3 233.2m-60 0a60 60 0 1 0 120 0 60 60 0 1 0-120 0Z" fill="#5228B0" /><path d="M803.5 228.5m-60 0a60 60 0 1 0 120 0 60 60 0 1 0-120 0Z" fill="#522AB1" /><path d="M798.5 224m-60 0a60 60 0 1 0 120 0 60 60 0 1 0-120 0Z" fill="#522DB2" /><path d="M793.5 219.5m-60 0a60 60 0 1 0 120 0 60 60 0 1 0-120 0Z" fill="#532FB3" /><path d="M788.4 215.1m-60 0a60 60 0 1 0 120 0 60 60 0 1 0-120 0Z" fill="#5332B4" /><path d="M783.2 210.8m-60 0a60 60 0 1 0 120 0 60 60 0 1 0-120 0Z" fill="#5334B5" /><path d="M777.9 206.6m-60 0a60 60 0 1 0 120 0 60 60 0 1 0-120 0Z" fill="#5337B5" /><path d="M772.6 202.5m-60 0a60 60 0 1 0 120 0 60 60 0 1 0-120 0Z" fill="#5339B6" /><path d="M767.2 198.5m-60 0a60 60 0 1 0 120 0 60 60 0 1 0-120 0Z" fill="#533CB7" /><path d="M761.8 194.6m-60 0a60 60 0 1 0 120 0 60 60 0 1 0-120 0Z" fill="#533EB8" /><path d="M756.2 190.7m-60 0a60 60 0 1 0 120 0 60 60 0 1 0-120 0Z" fill="#5341B9" /><path d="M750.6 187m-60 0a60 60 0 1 0 120 0 60 60 0 1 0-120 0Z" fill="#5343BA" /><path d="M745 183.4m-60 0a60 60 0 1 0 120 0 60 60 0 1 0-120 0Z" fill="#5346BB" /><path d="M739.2 179.8m-60 0a60 60 0 1 0 120 0 60 60 0 1 0-120 0Z" fill="#5348BC" /><path d="M733.4 176.4m-60 0a60 60 0 1 0 120 0 60 60 0 1 0-120 0Z" fill="#534BBD" /><path d="M727.6 173.1m-60 0a60 60 0 1 0 120 0 60 60 0 1 0-120 0Z" fill="#534DBE" /><path d="M721.7 169.8m-60 0a60 60 0 1 0 120 0 60 60 0 1 0-120 0Z" fill="#5450BF" /><path d="M715.7 166.7m-60 0a60 60 0 1 0 120 0 60 60 0 1 0-120 0Z" fill="#5452C0" /><path d="M709.7 163.6m-60 0a60 60 0 1 0 120 0 60 60 0 1 0-120 0Z" fill="#5455C1" /><path d="M703.7 160.8m-60 0a60 60 0 1 0 120 0 60 60 0 1 0-120 0Z" fill="#5457C2" /><path d="M697.6 157.9m-60 0a60 60 0 1 0 120 0 60 60 0 1 0-120 0Z" fill="#545AC3" /><path d="M691.4 155.2m-60 0a60 60 0 1 0 120 0 60 60 0 1 0-120 0Z" fill="#545CC3" /><path d="M685.2 152.6m-60 0a60 60 0 1 0 120 0 60 60 0 1 0-120 0Z" fill="#545FC4" /><path d="M678.9 150.1m-60 0a60 60 0 1 0 120 0 60 60 0 1 0-120 0Z" fill="#5461C5" /><path d="M672.7 147.7m-60 0a60 60 0 1 0 120 0 60 60 0 1 0-120 0Z" fill="#5464C6" /><path d="M666.3 145.4m-60 0a60 60 0 1 0 120 0 60 60 0 1 0-120 0Z" fill="#5466C7" /><path d="M659.9 143.3m-60 0a60 60 0 1 0 120 0 60 60 0 1 0-120 0Z" fill="#5469C8" /><path d="M653.5 141.2m-60 0a60 60 0 1 0 120 0 60 60 0 1 0-120 0Z" fill="#546BC9" /><path d="M647.1 139.3m-60 0a60 60 0 1 0 120 0 60 60 0 1 0-120 0Z" fill="#546ECA" /><path d="M640.6 137.4m-60 0a60 60 0 1 0 120 0 60 60 0 1 0-120 0Z" fill="#5570CB" /><path d="M634.1 135.7m-60 0a60 60 0 1 0 120 0 60 60 0 1 0-120 0Z" fill="#5573CC" /><path d="M627.6 134.1m-60 0a60 60 0 1 0 120 0 60 60 0 1 0-120 0Z" fill="#5575CD" /><path d="M621 132.6m-60 0a60 60 0 1 0 120 0 60 60 0 1 0-120 0Z" fill="#5578CE" /><path d="M614.4 131.2m-60 0a60 60 0 1 0 120 0 60 60 0 1 0-120 0Z" fill="#557ACF" /><path d="M607.8 130m-60 0a60 60 0 1 0 120 0 60 60 0 1 0-120 0Z" fill="#557DD0" /><path d="M601.2 128.8m-60 0a60 60 0 1 0 120 0 60 60 0 1 0-120 0Z" fill="#557FD0" /><path d="M594.5 127.8m-60 0a60 60 0 1 0 120 0 60 60 0 1 0-120 0Z" fill="#5582D1" /><path d="M587.9 126.8m-60 0a60 60 0 1 0 120 0 60 60 0 1 0-120 0Z" fill="#5584D2" /><path d="M581.2 126.1m-60 0a60 60 0 1 0 120 0 60 60 0 1 0-120 0Z" fill="#5587D3" /><path d="M574.5 125.3m-60 0a60 60 0 1 0 120 0 60 60 0 1 0-120 0Z" fill="#5589D4" /><path d="M567.8 124.8m-60 0a60 60 0 1 0 120 0 60 60 0 1 0-120 0Z" fill="#558CD5" /><path d="M561.1 124.3m-60 0a60 60 0 1 0 120 0 60 60 0 1 0-120 0Z" fill="#568ED6" /><path d="M554.4 124m-60 0a60 60 0 1 0 120 0 60 60 0 1 0-120 0Z" fill="#5691D7" /><path d="M547.6 123.8m-60 0a60 60 0 1 0 120 0 60 60 0 1 0-120 0Z" fill="#5693D8" /><path d="M540.9 123.6m-60 0a60 60 0 1 0 120 0 60 60 0 1 0-120 0Z" fill="#5696D9" /><path d="M534.2 123.7m-60 0a60 60 0 1 0 120 0 60 60 0 1 0-120 0Z" fill="#5698DA" /><path d="M527.5 123.9m-60 0a60 60 0 1 0 120 0 60 60 0 1 0-120 0Z" fill="#569BDB" /><path d="M520.7 124m-60 0a60 60 0 1 0 120 0 60 60 0 1 0-120 0Z" fill="#569DDC" /><path d="M514 124.4m-60 0a60 60 0 1 0 120 0 60 60 0 1 0-120 0Z" fill="#56A0DD" /><path d="M507.3 124.9m-60 0a60 60 0 1 0 120 0 60 60 0 1 0-120 0Z" fill="#56A2DD" /><path d="M500.6 125.4m-60 0a60 60 0 1 0 120 0 60 60 0 1 0-120 0Z" fill="#56A5DE" /><path d="M493.9 126.2m-60 0a60 60 0 1 0 120 0 60 60 0 1 0-120 0Z" fill="#56A7DF" /><path d="M487.2 127m-60 0a60 60 0 1 0 120 0 60 60 0 1 0-120 0Z" fill="#56AAE0" /><path d="M480.5 127.9m-60 0a60 60 0 1 0 120 0 60 60 0 1 0-120 0Z" fill="#56ACE1" /><path d="M473.9 129m-60 0a60 60 0 1 0 120 0 60 60 0 1 0-120 0Z" fill="#57AFE2" /><path d="M467.3 130.1m-60 0a60 60 0 1 0 120 0 60 60 0 1 0-120 0Z" fill="#57B1E3" /><path d="M460.7 131.3m-60 0a60 60 0 1 0 120 0 60 60 0 1 0-120 0Z" fill="#57B4E4" /><path d="M454.1 132.8m-60 0a60 60 0 1 0 120 0 60 60 0 1 0-120 0Z" fill="#57B6E5" /><path d="M447.5 134.3m-60 0a60 60 0 1 0 120 0 60 60 0 1 0-120 0Z" fill="#57B9E6" /><path d="M441 135.8m-60 0a60 60 0 1 0 120 0 60 60 0 1 0-120 0Z" fill="#57BBE7" /><path d="M434.5 137.6m-60 0a60 60 0 1 0 120 0 60 60 0 1 0-120 0Z" fill="#57BEE8" /><path d="M428 139.5m-60 0a60 60 0 1 0 120 0 60 60 0 1 0-120 0Z" fill="#57C0E9" /><path d="M421.6 141.4m-60 0a60 60 0 1 0 120 0 60 60 0 1 0-120 0Z" fill="#57C3EA" /><path d="M415.2 143.5m-60 0a60 60 0 1 0 120 0 60 60 0 1 0-120 0Z" fill="#57C5EB" /><path d="M408.8 145.7m-60 0a60 60 0 1 0 120 0 60 60 0 1 0-120 0Z" fill="#57C8EB" /><path d="M402.5 147.9m-60 0a60 60 0 1 0 120 0 60 60 0 1 0-120 0Z" fill="#57CAEC" /><path d="M396.2 150.4m-60 0a60 60 0 1 0 120 0 60 60 0 1 0-120 0Z" fill="#57CDED" /><path d="M390 152.9m-60 0a60 60 0 1 0 120 0 60 60 0 1 0-120 0Z" fill="#58CFEE" /><path d="M383.8 155.5m-60 0a60 60 0 1 0 120 0 60 60 0 1 0-120 0Z" fill="#58D2EF" /><path d="M377.6 158.3m-60 0a60 60 0 1 0 120 0 60 60 0 1 0-120 0Z" fill="#58D4F0" /><path d="M371.5 161m-60 0a60 60 0 1 0 120 0 60 60 0 1 0-120 0Z" fill="#58D7F1" /><path d="M365.5 164m-60 0a60 60 0 1 0 120 0 60 60 0 1 0-120 0Z" fill="#58D9F2" /><path d="M359.5 167.1m-60 0a60 60 0 1 0 120 0 60 60 0 1 0-120 0Z" fill="#58DCF3" /><path d="M353.5 170.1m-60 0a60 60 0 1 0 120 0 60 60 0 1 0-120 0Z" fill="#58DEF4" /><path d="M347.6 173.5m-60 0a60 60 0 1 0 120 0 60 60 0 1 0-120 0Z" fill="#58E1F5" /><path d="M341.8 176.8m-60 0a60 60 0 1 0 120 0 60 60 0 1 0-120 0Z" fill="#58E3F6" /><path d="M336 180.2m-60 0a60 60 0 1 0 120 0 60 60 0 1 0-120 0Z" fill="#58E6F7" /><path d="M330.3 183.8m-60 0a60 60 0 1 0 120 0 60 60 0 1 0-120 0Z" fill="#58E8F8" /><path d="M324.6 187.5m-60 0a60 60 0 1 0 120 0 60 60 0 1 0-120 0Z" fill="#58EBF8" /><path d="M319 191.2m-60 0a60 60 0 1 0 120 0 60 60 0 1 0-120 0Z" fill="#59EDF9" /><path d="M313.6 195.1m-60 0a60 60 0 1 0 120 0 60 60 0 1 0-120 0Z" fill="#59F0FA" /><path d="M308.1 199m-60 0a60 60 0 1 0 120 0 60 60 0 1 0-120 0Z" fill="#59F2FB" /><path d="M302.7 203m-60 0a60 60 0 1 0 120 0 60 60 0 1 0-120 0Z" fill="#59F5FC" /><path d="M297.4 207.2m-60 0a60 60 0 1 0 120 0 60 60 0 1 0-120 0Z" fill="#59F7FD" /><path d="M292.1 211.4m-60 0a60 60 0 1 0 120 0 60 60 0 1 0-120 0Z" fill="#59FAFE" /><path d="M287 275.7c33 0 60-27 60-60s-27-60-60-60-60 27-60 60c0 33.1 26.9 60 60 60z" fill="#59FCFF" /><path d="M276.7 224.6m-60 0a60 60 0 1 0 120 0 60 60 0 1 0-120 0Z" fill="#59FBFF" /><path d="M266.8 234m-60 0a60 60 0 1 0 120 0 60 60 0 1 0-120 0Z" fill="#5AF9FF" /><path d="M257.3 243.7m-60 0a60 60 0 1 0 120 0 60 60 0 1 0-120 0Z" fill="#5AF8FF" /><path d="M248 253.7m-60 0a60 60 0 1 0 120 0 60 60 0 1 0-120 0Z" fill="#5BF6FF" /><path d="M239.1 263.9m-60 0a60 60 0 1 0 120 0 60 60 0 1 0-120 0Z" fill="#5BF5FF" /><path d="M230.7 274.6m-60 0a60 60 0 1 0 120 0 60 60 0 1 0-120 0Z" fill="#5BF3FF" /><path d="M222.5 285.5m-60 0a60 60 0 1 0 120 0 60 60 0 1 0-120 0Z" fill="#5CF2FF" /><path d="M214.7 296.6m-60 0a60 60 0 1 0 120 0 60 60 0 1 0-120 0Z" fill="#5CF0FF" /><path d="M207.4 308.1m-60 0a60 60 0 1 0 120 0 60 60 0 1 0-120 0Z" fill="#5CEFFF" /><path d="M200.5 319.8m-60 0a60 60 0 1 0 120 0 60 60 0 1 0-120 0Z" fill="#5DEDFF" /><path d="M193.9 331.7m-60 0a60 60 0 1 0 120 0 60 60 0 1 0-120 0Z" fill="#5DECFF" /><path d="M187.8 343.9m-60 0a60 60 0 1 0 120 0 60 60 0 1 0-120 0Z" fill="#5EEAFF" /><path d="M182.2 356.3m-60 0a60 60 0 1 0 120 0 60 60 0 1 0-120 0Z" fill="#5EE9FF" /><path d="M176.9 368.8m-60 0a60 60 0 1 0 120 0 60 60 0 1 0-120 0Z" fill="#5EE7FF" /><path d="M172.1 381.5m-60 0a60 60 0 1 0 120 0 60 60 0 1 0-120 0Z" fill="#5FE6FF" /><path d="M167.7 394.4m-60 0a60 60 0 1 0 120 0 60 60 0 1 0-120 0Z" fill="#5FE4FF" /><path d="M163.9 407.5m-60 0a60 60 0 1 0 120 0 60 60 0 1 0-120 0Z" fill="#5FE3FF" /><path d="M160.5 420.6m-60 0a60 60 0 1 0 120 0 60 60 0 1 0-120 0Z" fill="#60E1FF" /><path d="M157.4 433.9m-60 0a60 60 0 1 0 120 0 60 60 0 1 0-120 0Z" fill="#60E0FF" /><path d="M155 447.3m-60 0a60 60 0 1 0 120 0 60 60 0 1 0-120 0Z" fill="#61DEFF" /><path d="M153 460.7m-60 0a60 60 0 1 0 120 0 60 60 0 1 0-120 0Z" fill="#61DDFF" /><path d="M151.4 474.2m-60 0a60 60 0 1 0 120 0 60 60 0 1 0-120 0Z" fill="#61DBFF" /><path d="M150.4 487.8m-60 0a60 60 0 1 0 120 0 60 60 0 1 0-120 0Z" fill="#62DAFF" /><path d="M149.8 501.4m-60 0a60 60 0 1 0 120 0 60 60 0 1 0-120 0Z" fill="#62D8FF" /><path d="M149.6 515m-60 0a60 60 0 1 0 120 0 60 60 0 1 0-120 0Z" fill="#63D7FF" /><path d="M150 528.6m-60 0a60 60 0 1 0 120 0 60 60 0 1 0-120 0Z" fill="#63D5FF" /><path d="M150.8 542.2m-60 0a60 60 0 1 0 120 0 60 60 0 1 0-120 0Z" fill="#63D4FF" /><path d="M152.1 555.7m-60 0a60 60 0 1 0 120 0 60 60 0 1 0-120 0Z" fill="#64D2FF" /><path d="M153.8 569.2m-60 0a60 60 0 1 0 120 0 60 60 0 1 0-120 0Z" fill="#64D1FF" /><path d="M156.1 582.6m-60 0a60 60 0 1 0 120 0 60 60 0 1 0-120 0Z" fill="#64CFFF" /><path d="M158.8 596m-60 0a60 60 0 1 0 120 0 60 60 0 1 0-120 0Z" fill="#65CEFF" /><path d="M161.8 609.2m-60 0a60 60 0 1 0 120 0 60 60 0 1 0-120 0Z" fill="#65CCFF" /><path d="M165.5 622.3m-60 0a60 60 0 1 0 120 0 60 60 0 1 0-120 0Z" fill="#66CBFF" /><path d="M169.6 635.3m-60 0a60 60 0 1 0 120 0 60 60 0 1 0-120 0Z" fill="#66C9FF" /><path d="M174.1 648.1m-60 0a60 60 0 1 0 120 0 60 60 0 1 0-120 0Z" fill="#66C8FF" /><path d="M179.1 660.8m-60 0a60 60 0 1 0 120 0 60 60 0 1 0-120 0Z" fill="#67C6FF" /><path d="M184.6 673.2m-60 0a60 60 0 1 0 120 0 60 60 0 1 0-120 0Z" fill="#67C5FF" /><path d="M190.5 685.5m-60 0a60 60 0 1 0 120 0 60 60 0 1 0-120 0Z" fill="#67C3FF" /><path d="M196.7 697.6m-60 0a60 60 0 1 0 120 0 60 60 0 1 0-120 0Z" fill="#68C2FF" /><path d="M203.5 709.4m-60 0a60 60 0 1 0 120 0 60 60 0 1 0-120 0Z" fill="#68C0FF" /><path d="M210.6 720.9m-60 0a60 60 0 1 0 120 0 60 60 0 1 0-120 0Z" fill="#69BFFF" /><path d="M218.1 732.3m-60 0a60 60 0 1 0 120 0 60 60 0 1 0-120 0Z" fill="#69BDFF" /><path d="M226 743.4m-60 0a60 60 0 1 0 120 0 60 60 0 1 0-120 0Z" fill="#69BCFF" /><path d="M234.3 754.1m-60 0a60 60 0 1 0 120 0 60 60 0 1 0-120 0Z" fill="#6ABAFF" /><path d="M243 764.6m-60 0a60 60 0 1 0 120 0 60 60 0 1 0-120 0Z" fill="#6AB9FF" /><path d="M252 774.8m-60 0a60 60 0 1 0 120 0 60 60 0 1 0-120 0Z" fill="#6AB7FF" /><path d="M261.4 784.6m-60 0a60 60 0 1 0 120 0 60 60 0 1 0-120 0Z" fill="#6BB6FF" /><path d="M271.2 794.1m-60 0a60 60 0 1 0 120 0 60 60 0 1 0-120 0Z" fill="#6BB4FF" /><path d="M281.2 803.3m-60 0a60 60 0 1 0 120 0 60 60 0 1 0-120 0Z" fill="#6CB3FF" /><path d="M291.5 812.2m-60 0a60 60 0 1 0 120 0 60 60 0 1 0-120 0Z" fill="#6CB1FF" /><path d="M302.2 820.6m-60 0a60 60 0 1 0 120 0 60 60 0 1 0-120 0Z" fill="#6CB0FF" /><path d="M313.1 828.7m-60 0a60 60 0 1 0 120 0 60 60 0 1 0-120 0Z" fill="#6DAEFF" /><path d="M324.4 836.4m-60 0a60 60 0 1 0 120 0 60 60 0 1 0-120 0Z" fill="#6DADFF" /><path d="M335.8 843.7m-60 0a60 60 0 1 0 120 0 60 60 0 1 0-120 0Z" fill="#6EABFF" /><path d="M347.6 850.5m-60 0a60 60 0 1 0 120 0 60 60 0 1 0-120 0Z" fill="#6EAAFF" /><path d="M359.5 857m-60 0a60 60 0 1 0 120 0 60 60 0 1 0-120 0Z" fill="#6EA8FF" /><path d="M371.7 863.1m-60 0a60 60 0 1 0 120 0 60 60 0 1 0-120 0Z" fill="#6FA7FF" /><path d="M384.1 868.7m-60 0a60 60 0 1 0 120 0 60 60 0 1 0-120 0Z" fill="#6FA5FF" /><path d="M396.7 873.8m-60 0a60 60 0 1 0 120 0 60 60 0 1 0-120 0Z" fill="#6FA4FF" /><path d="M409.4 878.6m-60 0a60 60 0 1 0 120 0 60 60 0 1 0-120 0Z" fill="#70A2FF" /><path d="M422.3 882.9m-60 0a60 60 0 1 0 120 0 60 60 0 1 0-120 0Z" fill="#70A1FF" /><path d="M435.4 886.6m-60 0a60 60 0 1 0 120 0 60 60 0 1 0-120 0Z" fill="#719FFF" /><path d="M448.6 890m-60 0a60 60 0 1 0 120 0 60 60 0 1 0-120 0Z" fill="#719EFF" /><path d="M461.9 892.9m-60 0a60 60 0 1 0 120 0 60 60 0 1 0-120 0Z" fill="#719CFF" /><path d="M475.3 895.3m-60 0a60 60 0 1 0 120 0 60 60 0 1 0-120 0Z" fill="#729BFF" /><path d="M488.7 897.2m-60 0a60 60 0 1 0 120 0 60 60 0 1 0-120 0Z" fill="#7299FF" /><path d="M502.3 898.7m-60 0a60 60 0 1 0 120 0 60 60 0 1 0-120 0Z" fill="#7298FF" /><path d="M515.8 899.8m-60 0a60 60 0 1 0 120 0 60 60 0 1 0-120 0Z" fill="#7396FF" /><path d="M529.4 900.2m-60 0a60 60 0 1 0 120 0 60 60 0 1 0-120 0Z" fill="#7395FF" /><path d="M543 900.4m-60 0a60 60 0 1 0 120 0 60 60 0 1 0-120 0Z" fill="#7493FF" /><path d="M556.6 899.9m-60 0a60 60 0 1 0 120 0 60 60 0 1 0-120 0Z" fill="#7492FF" /><path d="M570.2 899.1m-60 0a60 60 0 1 0 120 0 60 60 0 1 0-120 0Z" fill="#7490FF" /><path d="M583.7 897.7m-60 0a60 60 0 1 0 120 0 60 60 0 1 0-120 0Z" fill="#758FFF" /><path d="M597.2 895.9m-60 0a60 60 0 1 0 120 0 60 60 0 1 0-120 0Z" fill="#758DFF" /><path d="M610.6 893.5m-60 0a60 60 0 1 0 120 0 60 60 0 1 0-120 0Z" fill="#768CFF" /><path d="M623.9 890.8m-60 0a60 60 0 1 0 120 0 60 60 0 1 0-120 0Z" fill="#768AFF" /><path d="M637.1 887.5m-60 0a60 60 0 1 0 120 0 60 60 0 1 0-120 0Z" fill="#7689FF" /><path d="M650.2 883.9m-60 0a60 60 0 1 0 120 0 60 60 0 1 0-120 0Z" fill="#7787FF" /><path d="M663.2 879.7m-60 0a60 60 0 1 0 120 0 60 60 0 1 0-120 0Z" fill="#7786FF" /><path d="M676 875.1m-60 0a60 60 0 1 0 120 0 60 60 0 1 0-120 0Z" fill="#7784FF" /><path d="M688.6 870m-60 0a60 60 0 1 0 120 0 60 60 0 1 0-120 0Z" fill="#7883FF" /><path d="M701.1 864.5m-60 0a60 60 0 1 0 120 0 60 60 0 1 0-120 0Z" fill="#7881FF" /><path d="M713.3 858.6m-60 0a60 60 0 1 0 120 0 60 60 0 1 0-120 0Z" fill="#7980FF" /><path d="M725.3 852.2m-60 0a60 60 0 1 0 120 0 60 60 0 1 0-120 0Z" fill="#797EFF" /><path d="M737.1 845.4m-60 0a60 60 0 1 0 120 0 60 60 0 1 0-120 0Z" fill="#797DFF" /><path d="M748.7 838.3m-60 0a60 60 0 1 0 120 0 60 60 0 1 0-120 0Z" fill="#7A7BFF" /><path d="M760 830.7m-60 0a60 60 0 1 0 120 0 60 60 0 1 0-120 0Z" fill="#7A7AFF" /><path d="M771 822.7m-60 0a60 60 0 1 0 120 0 60 60 0 1 0-120 0Z" fill="#7A78FF" /><path d="M781.7 814.4m-60 0a60 60 0 1 0 120 0 60 60 0 1 0-120 0Z" fill="#7B77FF" /><path d="M792.2 805.7m-60 0a60 60 0 1 0 120 0 60 60 0 1 0-120 0Z" fill="#7B75FF" /><path d="M802.3 796.6m-60 0a60 60 0 1 0 120 0 60 60 0 1 0-120 0Z" fill="#7C74FF" /><path d="M812.1 787.2m-60 0a60 60 0 1 0 120 0 60 60 0 1 0-120 0Z" fill="#7C72FF" /><path d="M821.6 777.4m-60 0a60 60 0 1 0 120 0 60 60 0 1 0-120 0Z" fill="#7C71FF" /><path d="M830.7 767.3m-60 0a60 60 0 1 0 120 0 60 60 0 1 0-120 0Z" fill="#7D6FFF" /><path d="M839.5 756.9m-60 0a60 60 0 1 0 120 0 60 60 0 1 0-120 0Z" fill="#7D6EFF" /><path d="M847.8 746.2m-60 0a60 60 0 1 0 120 0 60 60 0 1 0-120 0Z" fill="#7D6CFF" /><path d="M855.8 735.2m-60 0a60 60 0 1 0 120 0 60 60 0 1 0-120 0Z" fill="#7E6BFF" /><path d="M863.5 723.9m-60 0a60 60 0 1 0 120 0 60 60 0 1 0-120 0Z" fill="#7E69FF" /><path d="M870.7 712.4m-60 0a60 60 0 1 0 120 0 60 60 0 1 0-120 0Z" fill="#7F68FF" /><path d="M874.4 699.8m-60 0a60 60 0 1 0 120 0 60 60 0 1 0-120 0Z" fill="#7F66FF" /><path d="M874.4 686.2m-60 0a60 60 0 1 0 120 0 60 60 0 1 0-120 0Z" fill="#7F65FF" /><path d="M874.4 672.6m-60 0a60 60 0 1 0 120 0 60 60 0 1 0-120 0Z" fill="#8063FF" /><path d="M874.4 659m-60 0a60 60 0 1 0 120 0 60 60 0 1 0-120 0Z" fill="#8062FF" /><path d="M874.4 645.4m-60 0a60 60 0 1 0 120 0 60 60 0 1 0-120 0Z" fill="#8160FF" /><path d="M874.4 631.8m-60 0a60 60 0 1 0 120 0 60 60 0 1 0-120 0Z" fill="#815FFF" /><path d="M861 631.5m-60 0a60 60 0 1 0 120 0 60 60 0 1 0-120 0Z" fill="#815DFF" /><path d="M847.4 631.5m-60 0a60 60 0 1 0 120 0 60 60 0 1 0-120 0Z" fill="#825CFF" /><path d="M833.8 631.5m-60 0a60 60 0 1 0 120 0 60 60 0 1 0-120 0Z" fill="#825AFF" /><path d="M820.2 631.5m-60 0a60 60 0 1 0 120 0 60 60 0 1 0-120 0Z" fill="#8259FF" /><path d="M806.6 631.5m-60 0a60 60 0 1 0 120 0 60 60 0 1 0-120 0Z" fill="#8357FF" /><path d="M793 631.5m-60 0a60 60 0 1 0 120 0 60 60 0 1 0-120 0Z" fill="#8356FF" /><path d="M779.4 631.5m-60 0a60 60 0 1 0 120 0 60 60 0 1 0-120 0Z" fill="#8454FF" /><path d="M765.8 631.5m-60 0a60 60 0 1 0 120 0 60 60 0 1 0-120 0Z" fill="#8453FF" /><path d="M752.2 631.5m-60 0a60 60 0 1 0 120 0 60 60 0 1 0-120 0Z" fill="#8451FF" /><path d="M738.6 631.5m-60 0a60 60 0 1 0 120 0 60 60 0 1 0-120 0Z" fill="#8550FF" /><path d="M725 631.5m-60 0a60 60 0 1 0 120 0 60 60 0 1 0-120 0Z" fill="#854EFF" /><path d="M711.4 631.5m-60 0a60 60 0 1 0 120 0 60 60 0 1 0-120 0Z" fill="#854DFF" /><path d="M697.8 631.5m-60 0a60 60 0 1 0 120 0 60 60 0 1 0-120 0Z" fill="#864BFF" /><path d="M684.2 631.5m-60 0a60 60 0 1 0 120 0 60 60 0 1 0-120 0Z" fill="#864AFF" /><path d="M670.6 631.5m-60 0a60 60 0 1 0 120 0 60 60 0 1 0-120 0Z" fill="#8748FF" /><path d="M657.1 691.5c33 0 60-27 60-60s-27-60-60-60-60 27-60 60 27 60 60 60z" fill="#8747FF" /></svg>