<svg class="svg-icon" style="width: 1.25em; height: 1em;vertical-align: middle;fill: currentColor;overflow: hidden;" viewBox="0 0 1280 1024" version="1.1" xmlns="http://www.w3.org/2000/svg"><path d="M409.6 460.8c-21.2-28.2-61.4-34-89.6-12.8-28.2 21.2-34 61.4-12.8 89.6l76.2 101.6c9.6 12.8 8.2 30.6-3 41.8l-25.6 25.6c-13.4 13.4-35.2 12.4-47.2-2.2L128 488.8V192c0-35.4-28.6-64-64-64S0 156.6 0 192v436.8c0 21.8 7.4 43 21 60l208.2 268.6c10 13 16.8 27.8 20.8 43.4 3.6 13.8 16.2 23.2 30.6 23.2H544c17.6 0 32-14.4 32-32V768c0-55.4-18-109.2-51.2-153.6l-115.2-153.6zM1216 128c-35.4 0-64 28.6-64 64v296.8l-179.6 215.6c-12 14.4-34 15.4-47.2 2.2l-25.6-25.6c-11.2-11.2-12.6-29-3-41.8l76.2-101.6c21.2-28.2 15.4-68.4-12.8-89.6-28.2-21.2-68.4-15.4-89.6 12.8l-115.2 153.6C722 658.8 704 712.6 704 768v224c0 17.6 14.4 32 32 32h263.4c14.2 0 27-9.4 30.6-23.2 4-15.6 10.8-30.4 20.8-43.4l208.2-268.6c13.6-17 21-38.2 21-60V192c0-35.4-28.6-64-64-64z" fill="" /></svg>