<svg class="svg-icon" style="width: 1em;height: 1em;vertical-align: middle;fill: currentColor;overflow: hidden;" viewBox="0 0 1024 1024" version="1.1" xmlns="http://www.w3.org/2000/svg"><path d="M866.816 202.752h-2.048c-15.36 0.512-30.208 4.096-44.032 10.752v-56.32c0-58.368-47.616-105.984-105.984-105.984-18.944 0-37.888 5.12-54.272 14.848C644.096 26.112 605.696 0 562.688 0c-43.008 0-81.92 26.112-98.304 65.536-16.384-9.728-34.816-14.848-54.272-14.848-58.368 0-105.984 47.616-105.984 105.984v356.352L244.736 410.112c-13.824-25.088-36.352-43.008-63.488-50.688-26.624-7.168-54.272-3.584-77.824 10.752-48.128 28.672-66.56 94.208-40.96 145.408l0.512 1.024c11.776 24.064 48.64 98.304 134.144 270.336 48.128 95.744 100.864 164.352 156.672 203.776 44.544 31.232 75.776 32.768 81.92 32.768h253.44c44.032 0 85.504-14.336 122.368-42.496 34.304-26.624 64-64.512 88.576-113.664 47.616-95.232 72.704-227.328 72.704-381.44V309.248c0.512-58.88-47.104-106.496-105.984-106.496zM486.4 516.608c16.384 0 30.208-13.312 30.208-30.208V105.984c0-25.6 20.48-46.08 46.08-46.08s46.08 20.48 46.08 46.08V486.4c0 16.384 13.312 30.208 30.208 30.208 16.384 0 30.208-13.312 30.208-30.208V156.672c0-25.6 20.48-46.08 46.08-46.08s46.08 20.48 46.08 46.08V537.6c0 16.384 13.312 30.208 30.208 30.208 16.384 0 30.208-13.312 30.208-30.208V309.248c0-25.6 20.48-46.08 46.08-46.08s46.08 20.48 46.08 46.08v177.664c0 144.896-23.04 267.264-66.56 354.304-28.16 56.32-77.824 122.88-157.184 122.88H437.248c-1.024 0-20.992-2.048-53.248-25.6-31.744-23.552-80.384-73.728-132.608-178.176-97.28-194.048-131.584-263.68-134.656-270.848l-0.512-1.024c-11.264-23.552-3.072-53.248 18.432-66.048 9.216-5.632 20.48-7.168 31.232-4.096 11.264 3.072 20.992 10.752 27.136 22.016l79.36 137.216c17.408 31.744 37.376 45.056 59.392 39.424 22.016-5.632 33.28-27.136 33.28-63.488V156.672c0-25.6 20.48-46.08 46.08-46.08s46.08 20.48 46.08 46.08V486.4c-0.512 16.896 12.8 30.208 29.184 30.208z"  /></svg>