<svg class="svg-icon" style="width: 1em; height: 1em;vertical-align: middle;fill: currentColor;overflow: hidden;" viewBox="0 0 1024 1024" version="1.1" xmlns="http://www.w3.org/2000/svg"><path d="M648.9 834.6H311c-82.1 0-148.9-64.5-148.9-143.8V369.7C162 290.4 228.8 226 311 226h284.4v60H311c-49 0-88.9 37.6-88.9 83.8v321.1c0 46.2 39.9 83.8 88.9 83.8h337.9c49 0 88.9-37.6 88.9-83.8l0.3-248.6 60 0.1-0.3 248.5c0 79.2-66.8 143.7-148.9 143.7z" fill="#000002" /><path d="M511.3 544c-8.2 0-16.4-3.1-22.6-9.4-12.5-12.5-12.5-32.8 0-45.3l256.4-256.4c12.5-12.5 32.8-12.5 45.3 0s12.5 32.8 0 45.3L534 534.6c-6.3 6.3-14.5 9.4-22.7 9.4z" fill="#000002" /></svg>