<svg class="svg-icon" style="width: 1em; height: 1em;vertical-align: middle;fill: currentColor;overflow: hidden;" viewBox="0 0 1024 1024" version="1.1" xmlns="http://www.w3.org/2000/svg"><path d="M601.881588 869.828688c0 0-68.00279 4.77577-92.550883 69.290109l0-49.839105c72.357981-40.930201 82.009805-84.7318 82.554204-101.262288 0.099261-1.880837 0.148379-3.736091 0.049119-5.616928-1.533936-26.355251-23.855314-46.548152-49.888224-45.137013-13.511735 0.766456-25.241894 7.274684-33.308617 16.950044-0.446162 0.420579-0.841158 0.916882-1.287319 1.360997-2.128477 2.202155-4.108574 4.529153-5.79089 7.05365-1.929955-2.795673-4.058432-5.443989-6.483668-7.794523-0.246617-0.198521-0.396019-0.420579-0.593518-0.6191-8.116865-9.724479-19.797905-16.183588-33.358759-16.950044-26.03291-1.411139-48.354288 18.781762-49.839105 45.137013-0.099261 1.880837-0.049119 3.736091 0.050142 5.616928 0.494257 16.45681 10.146081 60.084447 82.009805 100.965529l0 46.919613c-25.637913-61.297065-91.166349-66.072835-91.166349-66.072835-4.65195 103.094006 64.588017 121.727389 91.166349 125.093043l0 0.74292 15.886829 0 0-0.569982C534.669814 992.224296 606.681918 974.901769 601.881588 869.828688z"  /><path d="M690.968579 465.001593c-17.323551 0.99056-32.269961 9.255805-42.614563 21.702278-0.296759 0.24764-0.494257 0.51984-0.741897 0.792039-3.119037 2.994194-5.89015 6.384407-8.315386 9.972119-0.197498-0.246617-0.396019-0.445138-0.593518-0.692778-0.149403 0.24764-0.396019 0.446162-0.544399 0.692778-2.474354-3.587712-5.196349-6.977925-8.314363-9.972119-0.297782-0.273223-0.49528-0.544399-0.792039-0.792039-10.343579-12.446473-25.291013-20.711717-42.61354-21.702278-33.308617-1.781576-61.866023 24.053835-63.797002 57.757448-0.148379 2.400676-0.099261 4.776793 0.050142 7.17747 0.692778 21.058618 13.016455 76.887135 104.924701 129.176035l0 1.855254c3.711532 1.163499 7.176446 2.350534 11.086499 3.439332 3.90903-1.088798 7.373944-2.276856 11.086499-3.439332l0-1.855254c91.907223-52.289923 104.281041-108.117416 104.924701-129.176035 0.148379-2.400676 0.197498-4.776793 0.049119-7.17747C752.834602 489.055428 724.277196 463.220017 690.968579 465.001593z"  /><path d="M402.772808 613.777011c-10.740622 0.594541-19.945261 5.717212-26.37981 13.412474-0.197498 0.172939-0.296759 0.346901-0.494257 0.494257-1.930979 1.856277-3.613294 3.959172-5.14723 6.186909-0.099261-0.148379-0.24764-0.272199-0.346901-0.446162-0.099261 0.173962-0.246617 0.297782-0.345877 0.446162-1.484817-2.227738-3.218298-4.329609-5.14723-6.186909-0.149403-0.148379-0.296759-0.321318-0.446162-0.494257-6.433526-7.696286-15.689331-12.817933-26.378787-13.412474-20.639063-1.113357-38.308491 14.872732-39.495526 35.733852-0.099261 1.484817-0.050142 2.969635 0 4.455475 0.445138 13.016455 8.066723 47.586808 64.984037 79.95603l0 1.137916c2.276856 0.717338 4.454452 1.460258 6.829546 2.127454 2.425236-0.667196 4.602831-1.410116 6.880711-2.127454l0-1.137916c56.866149-32.369222 64.537875-66.939575 64.933895-79.95603 0.099261-1.484817 0.149403-2.969635 0.050142-4.455475C441.079252 628.649743 423.410847 612.663654 402.772808 613.777011z"  /><path d="M416.381757 285.145295c-19.648502 1.11438-36.624129 10.492982-48.354288 24.598234-0.346901 0.272199-0.544399 0.593518-0.890276 0.890276-3.515057 3.415796-6.632047 7.251148-9.403161 11.30958-0.197498-0.272199-0.446162-0.494257-0.64366-0.766456-0.197498 0.272199-0.446162 0.494257-0.64366 0.766456-2.772136-4.058432-5.89015-7.893784-9.453303-11.30958-0.296759-0.296759-0.543376-0.618077-0.841158-0.890276-11.729136-14.105253-28.705785-23.483854-48.354288-24.598234-37.762045-2.028193-70.131267 27.270087-72.308863 65.479317-0.197498 2.721994-0.099261 5.41943 0.050142 8.141424 0.74292 23.879873 14.748912 87.181595 118.980835 146.474003l0 2.103918c4.206812 1.310855 8.165983 2.671852 12.571317 3.910053 4.405333-1.238201 8.364505-2.599198 12.570293-3.910053L369.661689 505.240039c104.231923-59.291384 118.188796-122.594129 118.980835-146.474003 0.148379-2.721994 0.197498-5.41943 0.049119-8.141424C486.514047 312.415382 454.145849 283.116079 416.381757 285.145295z"  /><path d="M742.09398 48.927339c-24.696472 1.385557-45.979194 13.189394-60.777225 30.90794-0.396019 0.346901-0.64366 0.74292-1.039679 1.113357-4.454452 4.306072-8.364505 9.106402-11.877515 14.229073-0.24764-0.346901-0.544399-0.618077-0.792039-0.964978-0.246617 0.346901-0.544399 0.618077-0.841158 0.964978-3.464915-5.122671-7.373944-9.923-11.82942-14.229073-0.396019-0.370437-0.692778-0.766456-1.087774-1.113357-14.748912-17.718547-36.030611-29.523407-60.728106-30.90794-47.464011-2.549056-88.146573 34.273595-90.918709 82.280981-0.197498 3.415796-0.099261 6.804986 0.050142 10.220782 0.989537 30.016641 18.559705 109.576651 149.517315 184.088692l0 2.622734c5.29561 1.657756 10.29446 3.365654 15.83771 4.925173 5.54325-1.558495 10.5421-3.266393 15.788591-4.925173l0-2.622734c130.958634-74.511018 148.528801-154.072051 149.517315-184.088692 0.197498-3.415796 0.296759-6.804986 0.099261-10.220782C830.241576 83.200934 789.557992 46.378284 742.09398 48.927339z"  /></svg>