<svg class="svg-icon" style="width: 1em; height: 1em;vertical-align: middle;fill: currentColor;overflow: hidden;" viewBox="0 0 1024 1024" version="1.1" xmlns="http://www.w3.org/2000/svg"><path d="M384 501.333333a53.333333 53.333333 0 1 0 0 106.666667 53.333333 53.333333 0 0 0 0-106.666667z m256 0a53.333333 53.333333 0 1 0 0 106.666667 53.333333 53.333333 0 0 0 0-106.666667zM512 85.333333C276.48 85.333333 85.333333 276.48 85.333333 512s191.146667 426.666667 426.666667 426.666667 426.666667-191.146667 426.666667-426.666667S747.52 85.333333 512 85.333333z m0 768c-188.16 0-341.333333-153.173333-341.333333-341.333333 0-12.373333 0.853333-24.746667 2.133333-36.693333 100.693333-44.8 180.48-127.146667 222.293333-229.12a425.557333 425.557333 0 0 0 444.16 169.386666c8.96 30.293333 14.08 62.72 14.08 96.426667 0 188.16-153.173333 341.333333-341.333333 341.333333z"  /></svg>