<svg class="svg-icon" style="width: 1em; height: 1em;vertical-align: middle;fill: currentColor;overflow: hidden;" viewBox="0 0 1024 1024" version="1.1" xmlns="http://www.w3.org/2000/svg"><path d="M298.666667 554.666667 896 554.666667 896 469.333333 298.666667 469.333333M298.666667 810.666667 896 810.666667 896 725.333333 298.666667 725.333333M298.666667 298.666667 896 298.666667 896 213.333333 298.666667 213.333333M85.333333 469.333333 162.133333 469.333333 85.333333 558.933333 85.333333 597.333333 213.333333 597.333333 213.333333 554.666667 136.533333 554.666667 213.333333 465.066667 213.333333 426.666667 85.333333 426.666667M128 341.333333 170.666667 341.333333 170.666667 170.666667 85.333333 170.666667 85.333333 213.333333 128 213.333333M85.333333 725.333333 170.666667 725.333333 170.666667 746.666667 128 746.666667 128 789.333333 170.666667 789.333333 170.666667 810.666667 85.333333 810.666667 85.333333 853.333333 213.333333 853.333333 213.333333 682.666667 85.333333 682.666667 85.333333 725.333333Z"  /></svg>