<svg class="svg-icon" style="width: 1em; height: 1em;vertical-align: middle;fill: currentColor;overflow: hidden;" viewBox="0 0 1024 1024" version="1.1" xmlns="http://www.w3.org/2000/svg"><path d="M433.621333 945.934222a120.135111 120.135111 0 0 1-35.384889-85.489778V625.777778L163.555556 625.763556a120.021333 120.021333 0 0 1-85.489778-35.399112 120.064 120.064 0 0 1-35.384889-85.475555 120.092444 120.092444 0 0 1 35.384889-85.489778 120.064 120.064 0 0 1 85.504-35.384889L398.222222 384l0.014222-220.444444c-0.014222-32.284444 12.558222-62.648889 35.384889-85.489778S486.826667 42.666667 519.111111 42.680889c32.284444 0 62.634667 12.558222 85.489778 35.399111a120.035556 120.035556 0 0 1 35.384889 85.489778l0.014222 220.444444h220.444444c32.298667 0 62.634667 12.558222 85.489778 35.399111a119.936 119.936 0 0 1 35.384889 85.475556c0.014222 32.284444-12.558222 62.648889-35.384889 85.489778S892.728889 625.777778 860.444444 625.763556l-220.444444 0.028444-0.014222 234.652444a120.092444 120.092444 0 0 1-35.384889 85.489778 120.092444 120.092444 0 0 1-85.489778 35.384889 120.021333 120.021333 0 0 1-85.489778-35.384889z m13.169778-368.711111c5.134222 5.148444 8.32 12.245333 8.32 20.110222l0.014222 263.111111c0 17.123556 6.656 33.180444 18.730667 45.269334A63.587556 63.587556 0 0 0 519.111111 924.444444a63.658667 63.658667 0 0 0 45.255111-18.730666 63.388444 63.388444 0 0 0 18.730667-45.255111l0.028444-263.111111a28.444444 28.444444 0 0 1 28.444445-28.444445L860.444444 568.888889a63.573333 63.573333 0 0 0 45.255112-18.730667A63.587556 63.587556 0 0 0 924.444444 504.888889a63.644444 63.644444 0 0 0-18.744888-45.255111 63.374222 63.374222 0 0 0-45.226667-18.716445L611.555556 440.888889a28.444444 28.444444 0 0 1-28.444445-28.430222L583.096889 163.555556a63.616 63.616 0 0 0-18.716445-45.255112 63.530667 63.530667 0 0 0-45.255111-18.730666 63.630222 63.630222 0 0 0-45.283555 18.730666A63.601778 63.601778 0 0 0 455.111111 163.555556V412.444444a28.444444 28.444444 0 0 1-28.444444 28.444445l-263.111111 0.014222a63.616 63.616 0 0 0-45.269334 18.730667A63.715556 63.715556 0 0 0 99.555556 504.888889c0 17.109333 6.670222 33.166222 18.730666 45.255111a63.473778 63.473778 0 0 0 45.269334 18.730667l263.111111 0.028444c7.864889 0 14.976 3.185778 20.124444 8.32z" fill="" /></svg>