<svg class="svg-icon" style="width: 1em; height: 1em;vertical-align: middle;fill: currentColor;overflow: hidden;" viewBox="0 0 1024 1024" version="1.1" xmlns="http://www.w3.org/2000/svg"><path d="M612.6 947.5c33 0 60-27 60-60s-27-60-60-60-60 27-60 60 27 60 60 60z" fill="#5100A1" /><path d="M597.9 891.1m-60 0a60 60 0 1 0 120 0 60 60 0 1 0-120 0Z" fill="#5102A2" /><path d="M583 894.2m-60 0a60 60 0 1 0 120 0 60 60 0 1 0-120 0Z" fill="#5105A3" /><path d="M568 896.6m-60 0a60 60 0 1 0 120 0 60 60 0 1 0-120 0Z" fill="#5107A4" /><path d="M552.9 898.6m-60 0a60 60 0 1 0 120 0 60 60 0 1 0-120 0Z" fill="#510AA5" /><path d="M537.8 899.9m-60 0a60 60 0 1 0 120 0 60 60 0 1 0-120 0Z" fill="#510CA6" /><path d="M522.6 900.6m-60 0a60 60 0 1 0 120 0 60 60 0 1 0-120 0Z" fill="#510FA7" /><path d="M507.4 900.7m-60 0a60 60 0 1 0 120 0 60 60 0 1 0-120 0Z" fill="#5211A8" /><path d="M492.2 900.2m-60 0a60 60 0 1 0 120 0 60 60 0 1 0-120 0Z" fill="#5214A8" /><path d="M477 899.1m-60 0a60 60 0 1 0 120 0 60 60 0 1 0-120 0Z" fill="#5216A9" /><path d="M461.9 897.5m-60 0a60 60 0 1 0 120 0 60 60 0 1 0-120 0Z" fill="#5219AA" /><path d="M446.9 895.2m-60 0a60 60 0 1 0 120 0 60 60 0 1 0-120 0Z" fill="#521BAB" /><path d="M432 892.4m-60 0a60 60 0 1 0 120 0 60 60 0 1 0-120 0Z" fill="#521EAC" /><path d="M417.2 888.9m-60 0a60 60 0 1 0 120 0 60 60 0 1 0-120 0Z" fill="#5220AD" /><path d="M402.5 884.9m-60 0a60 60 0 1 0 120 0 60 60 0 1 0-120 0Z" fill="#5223AE" /><path d="M388 880.4m-60 0a60 60 0 1 0 120 0 60 60 0 1 0-120 0Z" fill="#5225AF" /><path d="M373.7 875.3m-60 0a60 60 0 1 0 120 0 60 60 0 1 0-120 0Z" fill="#5228B0" /><path d="M359.6 869.6m-60 0a60 60 0 1 0 120 0 60 60 0 1 0-120 0Z" fill="#522AB1" /><path d="M345.7 863.3m-60 0a60 60 0 1 0 120 0 60 60 0 1 0-120 0Z" fill="#522DB2" /><path d="M332.1 856.6m-60 0a60 60 0 1 0 120 0 60 60 0 1 0-120 0Z" fill="#532FB3" /><path d="M318.8 849.3m-60 0a60 60 0 1 0 120 0 60 60 0 1 0-120 0Z" fill="#5332B4" /><path d="M305.7 841.5m-60 0a60 60 0 1 0 120 0 60 60 0 1 0-120 0Z" fill="#5334B5" /><path d="M293 833.1m-60 0a60 60 0 1 0 120 0 60 60 0 1 0-120 0Z" fill="#5337B5" /><path d="M280.6 824.3m-60 0a60 60 0 1 0 120 0 60 60 0 1 0-120 0Z" fill="#5339B6" /><path d="M268.6 815m-60 0a60 60 0 1 0 120 0 60 60 0 1 0-120 0Z" fill="#533CB7" /><path d="M256.9 805.3m-60 0a60 60 0 1 0 120 0 60 60 0 1 0-120 0Z" fill="#533EB8" /><path d="M245.7 795.1m-60 0a60 60 0 1 0 120 0 60 60 0 1 0-120 0Z" fill="#5341B9" /><path d="M234.8 784.4m-60 0a60 60 0 1 0 120 0 60 60 0 1 0-120 0Z" fill="#5343BA" /><path d="M224.4 773.4m-60 0a60 60 0 1 0 120 0 60 60 0 1 0-120 0Z" fill="#5346BB" /><path d="M214.4 761.9m-60 0a60 60 0 1 0 120 0 60 60 0 1 0-120 0Z" fill="#5348BC" /><path d="M204.9 750.1m-60 0a60 60 0 1 0 120 0 60 60 0 1 0-120 0Z" fill="#534BBD" /><path d="M195.7 737.9m-60 0a60 60 0 1 0 120 0 60 60 0 1 0-120 0Z" fill="#534DBE" /><path d="M187.1 725.4m-60 0a60 60 0 1 0 120 0 60 60 0 1 0-120 0Z" fill="#5450BF" /><path d="M179 712.5m-60 0a60 60 0 1 0 120 0 60 60 0 1 0-120 0Z" fill="#5452C0" /><path d="M171.5 699.4m-60 0a60 60 0 1 0 120 0 60 60 0 1 0-120 0Z" fill="#5455C1" /><path d="M164.4 685.9m-60 0a60 60 0 1 0 120 0 60 60 0 1 0-120 0Z" fill="#5457C2" /><path d="M157.8 672.2m-60 0a60 60 0 1 0 120 0 60 60 0 1 0-120 0Z" fill="#545AC3" /><path d="M151.8 658.3m-60 0a60 60 0 1 0 120 0 60 60 0 1 0-120 0Z" fill="#545CC3" /><path d="M146.4 644m-60 0a60 60 0 1 0 120 0 60 60 0 1 0-120 0Z" fill="#545FC4" /><path d="M141.6 629.6m-60 0a60 60 0 1 0 120 0 60 60 0 1 0-120 0Z" fill="#5461C5" /><path d="M137.3 615m-60 0a60 60 0 1 0 120 0 60 60 0 1 0-120 0Z" fill="#5464C6" /><path d="M133.5 600.3m-60 0a60 60 0 1 0 120 0 60 60 0 1 0-120 0Z" fill="#5466C7" /><path d="M130.3 585.5m-60 0a60 60 0 1 0 120 0 60 60 0 1 0-120 0Z" fill="#5469C8" /><path d="M127.8 570.5m-60 0a60 60 0 1 0 120 0 60 60 0 1 0-120 0Z" fill="#546BC9" /><path d="M125.8 555.4m-60 0a60 60 0 1 0 120 0 60 60 0 1 0-120 0Z" fill="#546ECA" /><path d="M124.5 540.3m-60 0a60 60 0 1 0 120 0 60 60 0 1 0-120 0Z" fill="#5570CB" /><path d="M123.6 525.1m-60 0a60 60 0 1 0 120 0 60 60 0 1 0-120 0Z" fill="#5573CC" /><path d="M123.4 509.9m-60 0a60 60 0 1 0 120 0 60 60 0 1 0-120 0Z" fill="#5575CD" /><path d="M123.7 494.7m-60 0a60 60 0 1 0 120 0 60 60 0 1 0-120 0Z" fill="#5578CE" /><path d="M124.8 479.5m-60 0a60 60 0 1 0 120 0 60 60 0 1 0-120 0Z" fill="#557ACF" /><path d="M126.3 464.4m-60 0a60 60 0 1 0 120 0 60 60 0 1 0-120 0Z" fill="#557DD0" /><path d="M128.5 449.4m-60 0a60 60 0 1 0 120 0 60 60 0 1 0-120 0Z" fill="#557FD0" /><path d="M131.2 434.4m-60 0a60 60 0 1 0 120 0 60 60 0 1 0-120 0Z" fill="#5582D1" /><path d="M134.4 419.6m-60 0a60 60 0 1 0 120 0 60 60 0 1 0-120 0Z" fill="#5584D2" /><path d="M138.4 404.9m-60 0a60 60 0 1 0 120 0 60 60 0 1 0-120 0Z" fill="#5587D3" /><path d="M142.9 390.4m-60 0a60 60 0 1 0 120 0 60 60 0 1 0-120 0Z" fill="#5589D4" /><path d="M147.9 376m-60 0a60 60 0 1 0 120 0 60 60 0 1 0-120 0Z" fill="#558CD5" /><path d="M153.5 361.9m-60 0a60 60 0 1 0 120 0 60 60 0 1 0-120 0Z" fill="#568ED6" /><path d="M159.5 347.9m-60 0a60 60 0 1 0 120 0 60 60 0 1 0-120 0Z" fill="#5691D7" /><path d="M166.3 334.3m-60 0a60 60 0 1 0 120 0 60 60 0 1 0-120 0Z" fill="#5693D8" /><path d="M173.5 321m-60 0a60 60 0 1 0 120 0 60 60 0 1 0-120 0Z" fill="#5696D9" /><path d="M181.3 307.9m-60 0a60 60 0 1 0 120 0 60 60 0 1 0-120 0Z" fill="#5698DA" /><path d="M189.5 295.1m-60 0a60 60 0 1 0 120 0 60 60 0 1 0-120 0Z" fill="#569BDB" /><path d="M198.2 282.6m-60 0a60 60 0 1 0 120 0 60 60 0 1 0-120 0Z" fill="#569DDC" /><path d="M207.5 270.6m-60 0a60 60 0 1 0 120 0 60 60 0 1 0-120 0Z" fill="#56A0DD" /><path d="M217.2 258.9m-60 0a60 60 0 1 0 120 0 60 60 0 1 0-120 0Z" fill="#56A2DD" /><path d="M227.3 247.5m-60 0a60 60 0 1 0 120 0 60 60 0 1 0-120 0Z" fill="#56A5DE" /><path d="M237.8 236.6m-60 0a60 60 0 1 0 120 0 60 60 0 1 0-120 0Z" fill="#56A7DF" /><path d="M248.8 226.1m-60 0a60 60 0 1 0 120 0 60 60 0 1 0-120 0Z" fill="#56AAE0" /><path d="M260.2 216m-60 0a60 60 0 1 0 120 0 60 60 0 1 0-120 0Z" fill="#56ACE1" /><path d="M272 206.4m-60 0a60 60 0 1 0 120 0 60 60 0 1 0-120 0Z" fill="#57AFE2" /><path d="M284.1 197.2m-60 0a60 60 0 1 0 120 0 60 60 0 1 0-120 0Z" fill="#57B1E3" /><path d="M296.5 188.5m-60 0a60 60 0 1 0 120 0 60 60 0 1 0-120 0Z" fill="#57B4E4" /><path d="M309.4 180.3m-60 0a60 60 0 1 0 120 0 60 60 0 1 0-120 0Z" fill="#57B6E5" /><path d="M322.5 172.7m-60 0a60 60 0 1 0 120 0 60 60 0 1 0-120 0Z" fill="#57B9E6" /><path d="M335.9 165.5m-60 0a60 60 0 1 0 120 0 60 60 0 1 0-120 0Z" fill="#57BBE7" /><path d="M349.5 158.8m-60 0a60 60 0 1 0 120 0 60 60 0 1 0-120 0Z" fill="#57BEE8" /><path d="M363.5 152.8m-60 0a60 60 0 1 0 120 0 60 60 0 1 0-120 0Z" fill="#57C0E9" /><path d="M377.7 147.3m-60 0a60 60 0 1 0 120 0 60 60 0 1 0-120 0Z" fill="#57C3EA" /><path d="M392 142.3m-60 0a60 60 0 1 0 120 0 60 60 0 1 0-120 0Z" fill="#57C5EB" /><path d="M406.6 137.9m-60 0a60 60 0 1 0 120 0 60 60 0 1 0-120 0Z" fill="#57C8EB" /><path d="M421.3 134m-60 0a60 60 0 1 0 120 0 60 60 0 1 0-120 0Z" fill="#57CAEC" /><path d="M436.1 130.8m-60 0a60 60 0 1 0 120 0 60 60 0 1 0-120 0Z" fill="#57CDED" /><path d="M451.1 128.2m-60 0a60 60 0 1 0 120 0 60 60 0 1 0-120 0Z" fill="#58CFEE" /><path d="M466.2 126.1m-60 0a60 60 0 1 0 120 0 60 60 0 1 0-120 0Z" fill="#58D2EF" /><path d="M481.3 124.6m-60 0a60 60 0 1 0 120 0 60 60 0 1 0-120 0Z" fill="#58D4F0" /><path d="M496.4 123.7m-60 0a60 60 0 1 0 120 0 60 60 0 1 0-120 0Z" fill="#58D7F1" /><path d="M511.6 123.3m-60 0a60 60 0 1 0 120 0 60 60 0 1 0-120 0Z" fill="#58D9F2" /><path d="M526.8 123.7m-60 0a60 60 0 1 0 120 0 60 60 0 1 0-120 0Z" fill="#58DCF3" /><path d="M542 124.6m-60 0a60 60 0 1 0 120 0 60 60 0 1 0-120 0Z" fill="#58DEF4" /><path d="M557.1 126m-60 0a60 60 0 1 0 120 0 60 60 0 1 0-120 0Z" fill="#58E1F5" /><path d="M572.2 128m-60 0a60 60 0 1 0 120 0 60 60 0 1 0-120 0Z" fill="#58E3F6" /><path d="M587.2 130.6m-60 0a60 60 0 1 0 120 0 60 60 0 1 0-120 0Z" fill="#58E6F7" /><path d="M602 133.9m-60 0a60 60 0 1 0 120 0 60 60 0 1 0-120 0Z" fill="#58E8F8" /><path d="M616.7 137.7m-60 0a60 60 0 1 0 120 0 60 60 0 1 0-120 0Z" fill="#58EBF8" /><path d="M631.3 142.1m-60 0a60 60 0 1 0 120 0 60 60 0 1 0-120 0Z" fill="#59EDF9" /><path d="M645.7 147m-60 0a60 60 0 1 0 120 0 60 60 0 1 0-120 0Z" fill="#59F0FA" /><path d="M659.9 152.4m-60 0a60 60 0 1 0 120 0 60 60 0 1 0-120 0Z" fill="#59F2FB" /><path d="M673.8 158.5m-60 0a60 60 0 1 0 120 0 60 60 0 1 0-120 0Z" fill="#59F5FC" /><path d="M687.5 165.1m-60 0a60 60 0 1 0 120 0 60 60 0 1 0-120 0Z" fill="#59F7FD" /><path d="M700.9 172.3m-60 0a60 60 0 1 0 120 0 60 60 0 1 0-120 0Z" fill="#59FAFE" /><path d="M714 239.9c33 0 60-27 60-60s-27-60-60-60-60 27-60 60c0 33.1 27 60 60 60z" fill="#59FCFF" /><path d="M723.6 185.9m-60 0a60 60 0 1 0 120 0 60 60 0 1 0-120 0Z" fill="#59FAFF" /><path d="M732.8 192.2m-60 0a60 60 0 1 0 120 0 60 60 0 1 0-120 0Z" fill="#5AF8FF" /><path d="M742 198.6m-60 0a60 60 0 1 0 120 0 60 60 0 1 0-120 0Z" fill="#5AF7FF" /><path d="M750.9 205.5m-60 0a60 60 0 1 0 120 0 60 60 0 1 0-120 0Z" fill="#5BF5FF" /><path d="M759.7 212.5m-60 0a60 60 0 1 0 120 0 60 60 0 1 0-120 0Z" fill="#5BF3FF" /><path d="M768.2 219.8m-60 0a60 60 0 1 0 120 0 60 60 0 1 0-120 0Z" fill="#5CF1FF" /><path d="M776.5 227.3m-60 0a60 60 0 1 0 120 0 60 60 0 1 0-120 0Z" fill="#5CEFFF" /><path d="M784.6 235m-60 0a60 60 0 1 0 120 0 60 60 0 1 0-120 0Z" fill="#5DEEFF" /><path d="M792.5 243m-60 0a60 60 0 1 0 120 0 60 60 0 1 0-120 0Z" fill="#5DECFF" /><path d="M800.2 251.2m-60 0a60 60 0 1 0 120 0 60 60 0 1 0-120 0Z" fill="#5EEAFF" /><path d="M807.6 259.7m-60 0a60 60 0 1 0 120 0 60 60 0 1 0-120 0Z" fill="#5EE8FF" /><path d="M814.8 268.2m-60 0a60 60 0 1 0 120 0 60 60 0 1 0-120 0Z" fill="#5EE6FF" /><path d="M821.7 277.1m-60 0a60 60 0 1 0 120 0 60 60 0 1 0-120 0Z" fill="#5FE5FF" /><path d="M828.3 286.1m-60 0a60 60 0 1 0 120 0 60 60 0 1 0-120 0Z" fill="#5FE3FF" /><path d="M834.7 295.3m-60 0a60 60 0 1 0 120 0 60 60 0 1 0-120 0Z" fill="#60E1FF" /><path d="M840.8 304.7m-60 0a60 60 0 1 0 120 0 60 60 0 1 0-120 0Z" fill="#60DFFF" /><path d="M846.8 314.2m-60 0a60 60 0 1 0 120 0 60 60 0 1 0-120 0Z" fill="#61DEFF" /><path d="M852.3 324m-60 0a60 60 0 1 0 120 0 60 60 0 1 0-120 0Z" fill="#61DCFF" /><path d="M857.6 333.9m-60 0a60 60 0 1 0 120 0 60 60 0 1 0-120 0Z" fill="#62DAFF" /><path d="M862.6 344m-60 0a60 60 0 1 0 120 0 60 60 0 1 0-120 0Z" fill="#62D8FF" /><path d="M867.3 354.2m-60 0a60 60 0 1 0 120 0 60 60 0 1 0-120 0Z" fill="#63D6FF" /><path d="M871.7 364.4m-60 0a60 60 0 1 0 120 0 60 60 0 1 0-120 0Z" fill="#63D5FF" /><path d="M875.8 374.9m-60 0a60 60 0 1 0 120 0 60 60 0 1 0-120 0Z" fill="#63D3FF" /><path d="M879.6 385.4m-60 0a60 60 0 1 0 120 0 60 60 0 1 0-120 0Z" fill="#64D1FF" /><path d="M883.1 396.1m-60 0a60 60 0 1 0 120 0 60 60 0 1 0-120 0Z" fill="#64CFFF" /><path d="M886.2 406.9m-60 0a60 60 0 1 0 120 0 60 60 0 1 0-120 0Z" fill="#65CDFF" /><path d="M889.2 417.7m-60 0a60 60 0 1 0 120 0 60 60 0 1 0-120 0Z" fill="#65CCFF" /><path d="M891.6 428.6m-60 0a60 60 0 1 0 120 0 60 60 0 1 0-120 0Z" fill="#66CAFF" /><path d="M894 439.6m-60 0a60 60 0 1 0 120 0 60 60 0 1 0-120 0Z" fill="#66C8FF" /><path d="M895.8 450.7m-60 0a60 60 0 1 0 120 0 60 60 0 1 0-120 0Z" fill="#67C6FF" /><path d="M897.4 461.8m-60 0a60 60 0 1 0 120 0 60 60 0 1 0-120 0Z" fill="#67C4FF" /><path d="M898.8 472.9m-60 0a60 60 0 1 0 120 0 60 60 0 1 0-120 0Z" fill="#68C3FF" /><path d="M899.6 484.1m-60 0a60 60 0 1 0 120 0 60 60 0 1 0-120 0Z" fill="#68C1FF" /><path d="M900.4 495.3m-60 0a60 60 0 1 0 120 0 60 60 0 1 0-120 0Z" fill="#68BFFF" /><path d="M900.6 506.5m-60 0a60 60 0 1 0 120 0 60 60 0 1 0-120 0Z" fill="#69BDFF" /><path d="M900.6 517.7m-60 0a60 60 0 1 0 120 0 60 60 0 1 0-120 0Z" fill="#69BBFF" /><path d="M900.4 529m-60 0a60 60 0 1 0 120 0 60 60 0 1 0-120 0Z" fill="#6ABAFF" /><path d="M899.6 540.2m-60 0a60 60 0 1 0 120 0 60 60 0 1 0-120 0Z" fill="#6AB8FF" /><path d="M898.7 551.3m-60 0a60 60 0 1 0 120 0 60 60 0 1 0-120 0Z" fill="#6BB6FF" /><path d="M897.4 562.5m-60 0a60 60 0 1 0 120 0 60 60 0 1 0-120 0Z" fill="#6BB4FF" /><path d="M895.8 573.6m-60 0a60 60 0 1 0 120 0 60 60 0 1 0-120 0Z" fill="#6CB3FF" /><path d="M893.9 584.6m-60 0a60 60 0 1 0 120 0 60 60 0 1 0-120 0Z" fill="#6CB1FF" /><path d="M891.6 595.6m-60 0a60 60 0 1 0 120 0 60 60 0 1 0-120 0Z" fill="#6DAFFF" /><path d="M889.1 606.5m-60 0a60 60 0 1 0 120 0 60 60 0 1 0-120 0Z" fill="#6DADFF" /><path d="M886.2 617.4m-60 0a60 60 0 1 0 120 0 60 60 0 1 0-120 0Z" fill="#6DABFF" /><path d="M883 628.1m-60 0a60 60 0 1 0 120 0 60 60 0 1 0-120 0Z" fill="#6EAAFF" /><path d="M879.6 638.8m-60 0a60 60 0 1 0 120 0 60 60 0 1 0-120 0Z" fill="#6EA8FF" /><path d="M875.7 649.3m-60 0a60 60 0 1 0 120 0 60 60 0 1 0-120 0Z" fill="#6FA6FF" /><path d="M871.6 659.8m-60 0a60 60 0 1 0 120 0 60 60 0 1 0-120 0Z" fill="#6FA4FF" /><path d="M867.2 670.1m-60 0a60 60 0 1 0 120 0 60 60 0 1 0-120 0Z" fill="#70A2FF" /><path d="M862.5 680.3m-60 0a60 60 0 1 0 120 0 60 60 0 1 0-120 0Z" fill="#70A1FF" /><path d="M857.5 690.3m-60 0a60 60 0 1 0 120 0 60 60 0 1 0-120 0Z" fill="#719FFF" /><path d="M852.2 700.2m-60 0a60 60 0 1 0 120 0 60 60 0 1 0-120 0Z" fill="#719DFF" /><path d="M846.7 710m-60 0a60 60 0 1 0 120 0 60 60 0 1 0-120 0Z" fill="#729BFF" /><path d="M840.7 719.5m-60 0a60 60 0 1 0 120 0 60 60 0 1 0-120 0Z" fill="#7299FF" /><path d="M834.6 728.9m-60 0a60 60 0 1 0 120 0 60 60 0 1 0-120 0Z" fill="#7398FF" /><path d="M828.2 738.1m-60 0a60 60 0 1 0 120 0 60 60 0 1 0-120 0Z" fill="#7396FF" /><path d="M821.5 747.1m-60 0a60 60 0 1 0 120 0 60 60 0 1 0-120 0Z" fill="#7394FF" /><path d="M814.7 756m-60 0a60 60 0 1 0 120 0 60 60 0 1 0-120 0Z" fill="#7492FF" /><path d="M807.4 764.6m-60 0a60 60 0 1 0 120 0 60 60 0 1 0-120 0Z" fill="#7490FF" /><path d="M800.1 773m-60 0a60 60 0 1 0 120 0 60 60 0 1 0-120 0Z" fill="#758FFF" /><path d="M792.3 781.2m-60 0a60 60 0 1 0 120 0 60 60 0 1 0-120 0Z" fill="#758DFF" /><path d="M784.5 784.5m-60 0a60 60 0 1 0 120 0 60 60 0 1 0-120 0Z" fill="#768BFF" /><path d="M776.6 776.6m-60 0a60 60 0 1 0 120 0 60 60 0 1 0-120 0Z" fill="#7689FF" /><path d="M768.7 768.7m-60 0a60 60 0 1 0 120 0 60 60 0 1 0-120 0Z" fill="#7788FF" /><path d="M760.7 760.7m-60 0a60 60 0 1 0 120 0 60 60 0 1 0-120 0Z" fill="#7786FF" /><path d="M752.8 752.8m-60 0a60 60 0 1 0 120 0 60 60 0 1 0-120 0Z" fill="#7884FF" /><path d="M744.9 744.9m-60 0a60 60 0 1 0 120 0 60 60 0 1 0-120 0Z" fill="#7882FF" /><path d="M736.9 736.9m-60 0a60 60 0 1 0 120 0 60 60 0 1 0-120 0Z" fill="#7880FF" /><path d="M729 729m-60 0a60 60 0 1 0 120 0 60 60 0 1 0-120 0Z" fill="#797FFF" /><path d="M721.1 721.1m-60 0a60 60 0 1 0 120 0 60 60 0 1 0-120 0Z" fill="#797DFF" /><path d="M713.1 713.1m-60 0a60 60 0 1 0 120 0 60 60 0 1 0-120 0Z" fill="#7A7BFF" /><path d="M705.2 705.2m-60 0a60 60 0 1 0 120 0 60 60 0 1 0-120 0Z" fill="#7A79FF" /><path d="M697.3 697.3m-60 0a60 60 0 1 0 120 0 60 60 0 1 0-120 0Z" fill="#7B77FF" /><path d="M689.3 694.1m-60 0a60 60 0 1 0 120 0 60 60 0 1 0-120 0Z" fill="#7B76FF" /><path d="M690.9 702m-60 0a60 60 0 1 0 120 0 60 60 0 1 0-120 0Z" fill="#7C74FF" /><path d="M698.8 709.9m-60 0a60 60 0 1 0 120 0 60 60 0 1 0-120 0Z" fill="#7C72FF" /><path d="M706.8 717.9m-60 0a60 60 0 1 0 120 0 60 60 0 1 0-120 0Z" fill="#7D70FF" /><path d="M714.7 725.8m-60 0a60 60 0 1 0 120 0 60 60 0 1 0-120 0Z" fill="#7D6EFF" /><path d="M722.6 733.7m-60 0a60 60 0 1 0 120 0 60 60 0 1 0-120 0Z" fill="#7D6DFF" /><path d="M730.6 741.7m-60 0a60 60 0 1 0 120 0 60 60 0 1 0-120 0Z" fill="#7E6BFF" /><path d="M738.5 749.6m-60 0a60 60 0 1 0 120 0 60 60 0 1 0-120 0Z" fill="#7E69FF" /><path d="M746.4 757.5m-60 0a60 60 0 1 0 120 0 60 60 0 1 0-120 0Z" fill="#7F67FF" /><path d="M754.4 765.5m-60 0a60 60 0 1 0 120 0 60 60 0 1 0-120 0Z" fill="#7F65FF" /><path d="M762.3 773.4m-60 0a60 60 0 1 0 120 0 60 60 0 1 0-120 0Z" fill="#8064FF" /><path d="M770.2 781.3m-60 0a60 60 0 1 0 120 0 60 60 0 1 0-120 0Z" fill="#8062FF" /><path d="M778.2 789.3m-60 0a60 60 0 1 0 120 0 60 60 0 1 0-120 0Z" fill="#8160FF" /><path d="M786.1 797.2m-60 0a60 60 0 1 0 120 0 60 60 0 1 0-120 0Z" fill="#815EFF" /><path d="M794 805.1m-60 0a60 60 0 1 0 120 0 60 60 0 1 0-120 0Z" fill="#825DFF" /><path d="M802 813.1m-60 0a60 60 0 1 0 120 0 60 60 0 1 0-120 0Z" fill="#825BFF" /><path d="M809.9 821m-60 0a60 60 0 1 0 120 0 60 60 0 1 0-120 0Z" fill="#8259FF" /><path d="M817.8 828.9m-60 0a60 60 0 1 0 120 0 60 60 0 1 0-120 0Z" fill="#8357FF" /><path d="M825.8 836.9m-60 0a60 60 0 1 0 120 0 60 60 0 1 0-120 0Z" fill="#8355FF" /><path d="M833.7 844.8m-60 0a60 60 0 1 0 120 0 60 60 0 1 0-120 0Z" fill="#8454FF" /><path d="M841.6 852.7m-60 0a60 60 0 1 0 120 0 60 60 0 1 0-120 0Z" fill="#8452FF" /><path d="M849.6 860.7m-60 0a60 60 0 1 0 120 0 60 60 0 1 0-120 0Z" fill="#8550FF" /><path d="M857.5 868.6m-60 0a60 60 0 1 0 120 0 60 60 0 1 0-120 0Z" fill="#854EFF" /><path d="M865.4 876.5m-60 0a60 60 0 1 0 120 0 60 60 0 1 0-120 0Z" fill="#864CFF" /><path d="M873.4 884.5m-60 0a60 60 0 1 0 120 0 60 60 0 1 0-120 0Z" fill="#864BFF" /><path d="M881.3 892.4m-60 0a60 60 0 1 0 120 0 60 60 0 1 0-120 0Z" fill="#8749FF" /><path d="M889.1 960.2c33 0 60-27 60-60s-27-60-60-60-60 27-60 60 26.9 60 60 60z" fill="#8747FF" /></svg>