<svg class="svg-icon" style="width: 1em; height: 1em;vertical-align: middle;fill: currentColor;overflow: hidden;" viewBox="0 0 1024 1024" version="1.1" xmlns="http://www.w3.org/2000/svg"><path d="M432.43385 790.799774c-47.992037 0-94.556563-9.401114-138.406257-27.944446-42.342364-17.907858-80.364329-43.536562-113.00575-76.177983-32.641421-32.643468-58.272171-70.65827-76.179006-113.001657-18.543332-43.846624-27.949562-90.411149-27.949563-138.399094 0-47.995107 9.406231-94.560656 27.949563-138.411373 17.907858-42.342364 43.536562-80.357166 76.184123-113.001656 32.637328-32.637328 70.65827-58.267055 113.001657-76.168774 43.848671-18.542308 90.414219-27.943422 138.406256-27.943422 47.986921 0 94.556563 9.401114 138.40114 27.944445 42.342364 17.901719 80.368422 43.532469 113.00575 76.168774 32.643468 32.643468 58.276265 70.65827 76.184123 113.001657 18.544355 43.850717 27.949562 90.416266 27.949563 138.411373 0 47.986921-9.405207 94.552469-27.953656 138.403186-17.907858 42.337247-43.535539 80.357166-76.177983 112.995517-32.641421 32.641421-70.663386 58.272171-113.00575 76.177984-43.847647 18.543332-90.417289 27.945469-138.40421 27.945469z m0-659.230226c-167.474292 0-303.722396 136.244011-303.722396 303.707046 0 167.465083 136.248104 303.707047 303.722396 303.707047 167.468153 0 303.716256-136.242987 303.716256-303.707047 0-167.463036-136.248104-303.707047-303.716256-303.707046zM866.277816 944.248631c-21.539572 0-41.781592-8.335852-57.006342-23.484877L674.53377 790.156114c-10.275018-9.960863-10.529821-26.364461-0.569981-36.639478 9.960863-10.275018 26.364461-10.528797 36.639478-0.568959L845.750293 883.965663c5.463432 5.457292 12.752442 8.463766 20.526499 8.463766 7.774057 0 15.057951-3.00545 20.518313-8.463766 7.827269-7.827269 10.626012-19.410072 6.768147-30.785143-1.332345-3.928472-3.821025-7.369851-6.754844-10.302647l-0.294712-0.294712-130.708948-134.832872c-9.959839-10.273994-9.705036-26.677593 0.569982-36.637432 10.273994-9.959839 26.676569-9.704013 36.636408 0.568959l130.584104 134.701888c15.164375 15.229866 23.512507 35.46677 23.512507 57.017598 0 21.61632-8.401344 41.927925-23.64963 57.196677-15.259542 15.254425-35.563984 23.650653-57.180303 23.650652z" fill="" /><path d="M297.722752 569.909921c-11.131525 11.057847-29.443589 9.757225-38.97057-2.709715-28.858258-37.762045-44.411489-83.624583-44.408419-131.979893 0.008186-48.319495 15.626909-94.250594 44.472887-132.037199 9.540284-12.496615 27.90556-13.770632 39.024805-2.656503 9.232269 9.227152 10.028401 23.784706 2.135641 34.181497-44.931329 59.182914-44.950771 141.791353-0.065492 200.953801 7.910157 10.42749 7.095605 25.024953-2.188852 34.248012z" fill="" /></svg>