<svg class="svg-icon" style="width: 1em; height: 1em;vertical-align: middle;fill: currentColor;overflow: hidden;" viewBox="0 0 1024 1024" version="1.1" xmlns="http://www.w3.org/2000/svg"><path d="M148.650667 499.780267A84.650667 84.650667 0 0 0 170.666667 443.0848c0-47.035733-38.263467-85.333333-85.333334-85.333333h-68.266666a17.066667 17.066667 0 0 0-17.066667 17.066666v273.066667a17.066667 17.066667 0 0 0 17.066667 17.066667h102.4c47.069867 0 85.333333-38.2976 85.333333-85.333334a85.1968 85.1968 0 0 0-56.149333-79.837866zM34.133333 391.8848h51.2c28.228267 0 51.2 22.971733 51.2 51.2s-22.971733 51.2-51.2 51.2H34.133333v-102.4z m85.333334 238.933333H34.133333v-102.4h85.333334c28.228267 0 51.2 22.971733 51.2 51.2s-22.971733 51.2-51.2 51.2zM11.9808 322.833067a16.964267 16.964267 0 0 0 21.4016-11.195734l28.228267-90.4192h81.544533l28.2624 90.4192a17.134933 17.134933 0 0 0 21.435733 11.195734 17.066667 17.066667 0 0 0 11.195734-21.367467l-85.333334-273.066667c-4.471467-14.267733-28.125867-14.267733-32.597333 0l-85.333333 273.066667a17.066667 17.066667 0 0 0 11.195733 21.367467zM102.4 90.692267l30.1056 96.392533H72.2944L102.4 90.692267z m153.6 96.392533h750.933333a17.066667 17.066667 0 1 0 0-34.133333h-750.933333a17.066667 17.066667 0 0 0 0 34.133333z m750.933333 648.533333h-750.933333a17.066667 17.066667 0 0 0 0 34.133334h750.933333a17.066667 17.066667 0 1 0 0-34.133334zM102.4 733.184c68.266667 0 68.266667 38.536533 68.266667 51.2a17.066667 17.066667 0 0 0 34.133333 0c0-54.237867-37.341867-85.333333-102.4-85.333333-56.456533 0-102.4 48.503467-102.4 108.100266v91.0336c0 59.630933 45.943467 108.100267 102.4 108.100267 65.058133 0 102.4-31.095467 102.4-85.333333a17.066667 17.066667 0 0 0-34.133333 0c0 12.663467 0 51.2-68.266667 51.2-37.649067 0-68.266667-33.1776-68.266667-73.966934v-91.0336c0-40.789333 30.6176-73.966933 68.266667-73.966933z m904.533333-238.8992h-750.933333a17.066667 17.066667 0 0 0 0 34.133333h750.933333a17.066667 17.066667 0 1 0 0-34.133333z" fill="" /></svg>