<svg class="svg-icon" style="width: 1em; height: 1em;vertical-align: middle;fill: currentColor;overflow: hidden;" viewBox="0 0 1024 1024" version="1.1" xmlns="http://www.w3.org/2000/svg"><path d="M480 64c-265.088 0-480 214.912-480 480s214.912 480 480 480c265.088 0 480-214.912 480-480s-214.912-480-480-480zM751.584 704c8.576-40.448 13.984-83.392 15.744-128l127.456 0c-3.328 44.192-13.632 87.104-30.688 128l-112.512 0zM208.416 384c-8.576 40.448-13.984 83.392-15.744 128l-127.456 0c3.328-44.192 13.632-87.104 30.688-128l112.512 0zM686.048 384c9.6 40.96 15.392 83.84 17.28 128l-191.328 0 0-128 174.048 0zM512 320l0-187.328c14.592 4.256 29.056 11.36 43.232 21.376 26.592 18.752 52 47.616 73.536 83.488 14.88 24.8 27.744 52.416 38.496 82.496l-155.264 0zM331.232 237.504c21.536-35.872 46.944-64.736 73.536-83.488 14.176-10.016 28.64-17.12 43.232-21.376l0 187.328-155.264 0c10.752-30.08 23.616-57.696 38.496-82.496zM448 384l0 128-191.328 0c1.888-44.16 7.68-87.04 17.28-128l174.048 0zM95.904 704c-17.056-40.896-27.328-83.808-30.688-128l127.456 0c1.76 44.608 7.168 87.552 15.744 128l-112.512 0zM256.672 576l191.328 0 0 128-174.048 0c-9.6-40.96-15.392-83.84-17.28-128zM448 768l0 187.328c-14.592-4.256-29.056-11.36-43.232-21.376-26.592-18.752-52-47.616-73.536-83.488-14.88-24.8-27.744-52.416-38.496-82.496l155.264 0zM628.768 850.496c-21.536 35.872-46.944 64.736-73.536 83.488-14.176 9.984-28.64 17.12-43.232 21.376l0-187.328 155.264 0c-10.752 30.08-23.616 57.664-38.496 82.496zM512 704l0-128 191.328 0c-1.888 44.16-7.68 87.04-17.28 128l-174.048 0zM767.36 512c-1.76-44.608-7.168-87.552-15.744-128l112.512 0c17.056 40.896 27.36 83.808 30.688 128l-127.456 0zM830.656 320l-95.904 0c-18.624-58.752-44.384-110.304-75.328-151.424 42.528 20.352 81.056 47.616 114.72 81.28 21.472 21.472 40.352 44.928 56.512 70.144zM185.856 249.856c33.664-33.664 72.192-60.928 114.72-81.28-30.944 41.12-56.672 92.672-75.328 151.424l-95.904 0c16.128-25.216 35.008-48.672 56.512-70.144zM129.344 768l95.904 0c18.656 58.752 44.384 110.304 75.328 151.424-42.528-20.352-81.056-47.616-114.72-81.28-21.472-21.472-40.352-44.928-56.512-70.144zM774.144 838.144c-33.664 33.664-72.192 60.928-114.72 81.28 30.944-41.12 56.672-92.672 75.328-151.424l95.904 0c-16.128 25.216-35.008 48.672-56.512 70.144z"  /></svg>