<svg class="svg-icon" style="width: 1em; height: 1em;vertical-align: middle;fill: currentColor;overflow: hidden;" viewBox="0 0 1024 1024" version="1.1" xmlns="http://www.w3.org/2000/svg"><path d="M877.714286 548.571429q0-48-18.285714-104.571429t-36.571429-110.857143-18.285714-95.428571l0-18.285714-365.714286 0 0 18.285714q0 20-6.857143 38.571429t-21.142857 35.714286-26.285714 28.571429-30.857143 28q-5.142857 4.571429-8 6.857143-46.285714 41.142857-82.857143 64-12.571429 8-38.857143 21.714286-1.714286 0.571429-12.857143 6t-20.571429 10.571429-20.285714 11.428571-17.428571 12.285714-6.571429 10.571429q0 40.571429 17.428571 66t55.714286 25.428571q24.571429 0 48.285714-8.571429t38.857143-18.857143 31.428571-18.857143 27.714286-8.571429l0 329.142857q0 28.571429 22 50.857143t51.142857 22.285714q29.714286 0 51.428571-21.714286t21.714286-51.428571l0-189.142857q26.285714 20 58.857143 20 39.428571 0 68-30.285714 18.285714 10.285714 39.428571 10.285714t42-10 30-27.142857q13.714286 2.285714 32 2.285714 48.571429 0 72-27.714286t23.428571-77.428571zm-73.142857-438.857143q0-14.857143-10.857143-25.714286t-25.714286-10.857143-25.714286 10.857143-10.857143 25.714286 10.857143 25.714286 25.714286 10.857143 25.714286-10.857143 10.857143-25.714286zm146.285714 436.571429q0 81.142857-44.285714 131.428571t-124.285714 49.714286l-2.857143-0.571429q-43.428571 34.857143-101.714286 34.857143-12.571429 0-24.571429-1.714286-30.857143 17.142857-68 21.142857l0 96.571429q0 60-43.428571 103.142857t-103.428571 43.142857q-58.857143 0-102.285714-43.428571t-43.428571-102.857143l0-213.714286q-30.857143 12.571429-73.142857 12.571429-69.142857 0-107.714286-46.571429t-38.571429-118q0-21.714286 10-39.714286t28.285714-31.428571 36-23.142857 41.142857-21.142857 35.428571-18.857143q31.428571-20 73.714286-57.142857 1.714286-1.142857 9.714286-8t12.285714-10.857143 12.285714-11.714286 12.857143-13.714286 10.285714-12.857143 8-13.428571 2.571429-12.285714l0-164.571429q0-30.285714 21.428571-51.714286t51.714286-21.428571l365.714286 0q30.285714 0 51.714286 21.428571t21.428571 51.714286l0 164.571429q0 33.714286 33.714286 127.428571 39.428571 108.571429 39.428571 181.142857z"  /></svg>