<svg class="svg-icon" style="width: 1em; height: 1em;vertical-align: middle;fill: currentColor;overflow: hidden;" viewBox="0 0 1024 1024" version="1.1" xmlns="http://www.w3.org/2000/svg"><path d="M426.666667 785.066667a17.0496 17.0496 0 0 1-12.066134-29.1328L641.467733 529.066667H85.333333a17.066667 17.066667 0 1 1 0-34.133334h556.1344L414.600533 268.066133a17.0496 17.0496 0 1 1 24.132267-24.132266l256 256a16.9472 16.9472 0 0 1 5.000533 12.014933v0.1024a16.861867 16.861867 0 0 1-5.000533 12.014933l-256 256A17.015467 17.015467 0 0 1 426.666667 785.066667z m426.666666-170.666667c-27.904 0-52.343467-10.308267-72.6528-30.600533C760.951467 564.087467 750.933333 539.921067 750.933333 512c0-27.818667 9.949867-52.189867 29.5424-72.448C801.143467 419.549867 825.531733 409.6 853.333333 409.6c27.921067 0 52.0704 10.001067 71.799467 29.7472C945.425067 459.656533 955.733333 484.096 955.733333 512c0 28.023467-10.359467 52.258133-30.805333 72.004267C905.591467 604.040533 881.3568 614.4 853.333333 614.4z m0-170.666667c-18.8928 0-34.833067 6.519467-48.708266 19.950934C791.586133 477.149867 785.066667 493.090133 785.066667 512c0 18.807467 6.468267 34.389333 19.746133 47.6672C818.688 573.525333 834.542933 580.266667 853.333333 580.266667c18.670933 0 34.2016-6.673067 47.4624-20.394667C914.926933 546.2016 921.6 530.670933 921.6 512c0-18.7904-6.741333-34.645333-20.599467-48.520533C887.722667 450.184533 872.123733 443.733333 853.333333 443.733333z"  /></svg>