<svg class="svg-icon" style="width: 1em; height: 1em;vertical-align: middle;fill: currentColor;overflow: hidden;" viewBox="0 0 1024 1024" version="1.1" xmlns="http://www.w3.org/2000/svg"><path d="M921.6 546.133333h-85.333333v-85.333333c0-10.24-6.826667-17.066667-17.066667-17.066667s-17.066667 6.826667-17.066667 17.066667V546.133333H716.8c-10.24 0-17.066667 6.826667-17.066667 17.066667s6.826667 17.066667 17.066667 17.066667h85.333333v85.333333c0 10.24 6.826667 17.066667 17.066667 17.066667s17.066667-6.826667 17.066667-17.066667V580.266667H921.6c10.24 0 17.066667-6.826667 17.066667-17.066667s-6.826667-17.066667-17.066667-17.066667zM621.226667 0c-6.826667 0-13.653333 0-17.066667 3.413333L266.24 341.333333H102.4c-10.24 0-17.066667 6.826667-17.066667 17.066667v307.2c0 10.24 6.826667 17.066667 17.066667 17.066667h163.84l337.92 337.92c3.413333 3.413333 6.826667 3.413333 13.653333 3.413333h6.826667c6.826667-3.413333 10.24-10.24 10.24-17.066667V17.066667c-3.413333-6.826667-6.826667-13.653333-13.653333-17.066667z" fill="" /></svg>